<?xml version="1.0" standalone="no"?>
<!DOCTYPE svg PUBLIC "-//W3C//DTD SVG 1.1//EN" "http://www.w3.org/Graphics/SVG/1.1/DTD/svg11.dtd" >
<!--
2013-9-30: Created.
-->
<svg>
<metadata>
Created by iconfont
</metadata>
<defs>

<font id="iconfont" horiz-adv-x="1024" >
  <font-face
    font-family="iconfont"
    font-weight="500"
    font-stretch="normal"
    units-per-em="1024"
    ascent="896"
    descent="-128"
  />
    <missing-glyph />
    
    <glyph glyph-name="youjian" unicode="&#58945;" d="M944.934912 620.765952c-5.781504-0.608256-11.573248-1.094656-17.34144-1.094656-276.85376-0.169984-553.695232-0.169984-830.53568 0-5.768192 0-11.548672 0.487424-17.34144 1.094656-9.017344-3.456-15.430656-12.181504-15.430656-22.427648l0-2.495488c12.425216-8.421376 26.079232-15.455232 37.067776-25.434112C214.029312 467.894016 326.340608 364.990208 438.639616 262.061824c54.214656-49.69984 92.913664-49.750016 147.309568 0.07168 111.545344 102.102016 223.015936 204.288 334.913536 306.01216 11.803648 10.732544 26.273792 18.521088 39.489536 27.696128l0 2.495488C960.35328 608.584448 953.951232 617.309952 944.934912 620.765952M695.681024 259.309312c-15.783936 13.874176-27.406336 13.75232-41.814016-1.678336-14.286848-15.286272-30.77632-28.550144-46.524416-42.447872-61.479936-54.127616-129.27488-53.885952-190.803968 0.705536-20.566016 18.241536-40.937472 36.67968-63.949824 57.341952-63.280128-52.328448-125.04064-103.780352-187.262976-154.69568-33.283072-27.236352-67.33312-53.545984-101.029888-80.258048l0-35.69152c0-13.290496 10.758144-24.045568 24.046592-24.045568l847.962112 0c13.289472 0 24.05888 10.756096 24.05888 24.045568l0 42.323968c-55.163904 43.809792-110.522368 87.35232-165.394432 131.52768C761.383936 203.465472 728.039424 230.857472 695.681024 259.309312M64.285696 536.092416l0-438.074368C147.049472 167.01824 229.788672 236.017408 316.082176 307.988224 229.351424 386.554624 146.818048 461.321984 64.285696 536.092416M960.365568 104.66176 960.365568 536.092416c-82.35008-74.624-164.687872-149.245952-249.78944-226.37568C796.68736 239.023872 878.52544 171.838208 960.365568 104.66176"  horiz-adv-x="1024" />

    
    <glyph glyph-name="icon" unicode="&#58884;" d="M1029.56209 195.375164 514.781045 633.37379l-514.781045-437.998626L0 373.937441 514.781045 812l514.781045-438.062559L1029.56209 195.375164zM900.866829 211.29425l0-423.29425-257.454455 0 0 282.196167L386.021852 70.196167l0-282.196167L128.631329-212 128.631329 211.29425 514.781045 528.716988 900.866829 211.29425z"  horiz-adv-x="1030" />

    
    <glyph glyph-name="yuandianxiao" unicode="&#59223;" d="M480 416m-160 0a2.5 2.5 0 1 0 320 0 2.5 2.5 0 1 0-320 0Z"  horiz-adv-x="1024" />

    
    <glyph glyph-name="sousuo" unicode="&#58893;" d="M988 23.0625c21.875-24.9375 33.75-46.8125 35.6875-65.5s-5.3125-37-21.625-54.9375c-18.6875-21-39.375-31-62-29.8125C917.5-126 895.625-116.875 874.625-99.75L678.125 89.6875c-35-22.5625-72.625-40.125-112.7875-52.5625-40.1625-12.5-82.4375-18.75-126.875-18.75-60.8125 0-117.6875 11.5-170.725 34.5-53 23-99.375 54.375-139.125 94.125S57.5 233.125 34.5 286.125 0 396.025 0 456.8375c0 60.7875 11.5 117.6875 34.5 170.725 23 53 54.375 99.375 94.125 139.125 39.75 39.7875 86.125 71.1625 139.125 94.125 53.0375 23 109.9125 34.5 170.725 34.5s117.725-11.5 170.725-34.5c53-22.975 99.375-54.35 139.125-94.125 39.75-39.75 71.125-86.125 94.125-139.125 23-53.0375 34.5-109.9375 34.5-170.725 0-46-6.625-89.6625-19.875-130.975-13.25-41.25-31.9375-79.5-56.125-114.5625l38.5625-38.5625c18.75-18.75 38.4375-38.25 59.0625-58.5 20.6875-20.25 39.5625-39.375 56.6875-57.25C972.4375 39 983.375 27.75 988 23.0625zM443.1625 164.5c40.5375 0 78.725 7.625 114.6 22.875 35.875 15.125 67 36 93.5 62.5 26.5 26.5 47.375 57.6875 62.5625 93.5625 15.1875 35.85 22.8125 74.0375 22.8125 114.5625s-7.625 78.75-22.8125 114.6c-15.1875 35.875-36.0625 67.0375-62.5625 93.5625-26.5 26.5-57.625 47.35-93.5 62.5375-35.875 15.225-74.0625 22.8125-114.6 22.8125s-78.75-7.6-114.6-22.8125c-35.85-15.1875-67.0375-36.0375-93.5375-62.5375-26.5-26.5375-47.375-57.6875-62.5625-93.5625-15.1875-35.85-22.8125-74.0625-22.8125-114.6s7.625-78.725 22.8125-114.5625c15.1875-35.875 36.0625-67.0625 62.5625-93.5625 26.5-26.5 57.6875-47.375 93.5375-62.5C364.4125 172.125 402.625 164.5 443.1625 164.5L443.1625 164.5z"  horiz-adv-x="1024" />

    
    <glyph glyph-name="circleyuanquan" unicode="&#59166;" d="M150.1184 745.8816C250.2656 845.9264 370.8928 896 512 896c141.1072 0 261.7344-50.0736 361.8816-150.1184C973.9264 645.7344 1024 525.1072 1024 384c0-141.2096-50.0736-261.8368-150.1184-361.8816C773.7344-77.9264 653.1072-128 512-128c-141.1072 0-261.7344 50.0736-361.8816 150.1184C50.0736 122.1632 0 242.7904 0 384 0 525.1072 50.0736 645.7344 150.1184 745.8816zM512 854.1184c-85.2992 0-164.1472-20.8896-236.3392-62.7712C203.4688 749.568 146.432 692.5312 104.6528 620.3392 62.7712 548.0448 41.8816 469.2992 41.8816 384c0-129.6384 45.9776-240.4352 137.8304-332.288C271.5648-40.2432 382.3616-86.1184 512-86.1184c129.6384 0 240.4352 45.8752 332.288 137.8304C936.2432 143.5648 982.1184 254.3616 982.1184 384c0 129.6384-45.9776 240.3328-137.8304 332.288C752.4352 808.2432 641.6384 854.1184 512 854.1184zM512 640c-36.1472 0-70.144-7.0656-102.1952-20.8896C377.856 605.0816 349.4912 586.6496 324.9152 563.712c-22.9376-24.576-41.472-52.9408-55.3984-84.8896S248.6272 412.672 248.6272 376.6272c0-36.1472 6.9632-70.144 20.8896-102.1952s32.4608-60.3136 55.3984-84.8896C349.4912 166.5024 377.856 148.0704 409.8048 134.144 441.856 120.2176 475.8528 113.2544 512 113.2544c36.1472 0 70.144 6.9632 102.1952 20.8896C646.144 148.0704 674.5088 166.5024 699.0848 189.5424c22.9376 24.576 41.472 52.9408 55.3984 84.8896s20.8896 66.048 20.8896 102.1952c0 36.0448-6.9632 70.144-20.8896 102.1952S722.0224 539.0336 699.0848 563.712C674.5088 586.6496 646.144 605.0816 614.1952 619.1104 582.144 632.9344 548.1472 640 512 640z"  horiz-adv-x="1024" />

    
    <glyph glyph-name="weixin" unicode="&#58899;" d="M670.083411 525.074016c10.257621 0 20.401656-0.729617 30.430056-1.855254-27.334555 125.06132-163.500794 218.041992-318.978868 218.041992-173.758416 0-316.110541-116.339682-316.110541-264.027325 0-85.266989 47.338145-155.286716 126.480646-209.598692l-31.638581-93.374644 110.491487 54.42761c39.542598-7.712659 71.290673-15.592117 110.718661-15.592117 9.91686 0 19.771299 0.506537 29.512151 1.236154-6.186909 20.771069-9.740852 42.493813-9.740852 65.064878C401.306922 414.985712 519.934716 525.074016 670.083411 525.074016L670.083411 525.074016zM500.108159 609.221508c23.784706 0 39.542598-15.369036 39.542598-38.724976 0-23.24747-15.757892-38.835494-39.542598-38.835494-23.668049 0-47.452755 15.588023-47.452755 38.835494C452.655404 593.852472 476.44011 609.221508 500.108159 609.221508L500.108159 609.221508zM278.896988 531.604756c-23.668049 0-47.622624 15.588023-47.622624 38.835494 0 23.355941 23.898293 38.71986 47.622624 38.71986 23.671119 0 39.485293-15.364943 39.485293-38.71986C318.324976 547.192779 302.568107 531.604756 278.896988 531.604756L278.896988 531.604756zM278.896988 531.604756M958.574918 283.054937c0 124.107599-126.480646 225.302349-268.49201 225.302349-150.375869 0-268.890077-101.19475-268.890077-225.302349 0-124.331703 118.457926-225.302349 268.890077-225.302349 31.463596 0 63.21474 7.823176 94.847182 15.591093l86.706781-46.603411-23.780613 77.559447C911.293055 151.07095 958.574918 213.039303 958.574918 283.054937L958.574918 283.054937zM602.916663 321.946712c-15.757892 0-31.633465 15.368012-31.633465 31.071669 0 15.47546 15.876596 31.068599 31.633465 31.068599 23.899316 0 39.542598-15.592117 39.542598-31.068599C642.459261 337.314725 626.815979 321.946712 602.916663 321.946712L602.916663 321.946712zM776.793782 321.946712c-15.649422 0-31.406291 15.368012-31.406291 31.071669 0 15.47546 15.757892 31.068599 31.406291 31.068599 23.667026 0 39.542598-15.592117 39.542598-31.068599C816.33638 337.314725 800.459784 321.946712 776.793782 321.946712L776.793782 321.946712zM776.793782 321.946712"  horiz-adv-x="1024" />

    
    <glyph glyph-name="huaxue" unicode="&#58891;" d="M368.825007 896l-368.825125-212.943396 0-425.913949 368.825125-212.970434 368.825363 212.970434 0 425.913949L368.825007 896zM641.18837 312.816167l-272.363363-157.204426L96.458916 312.816167l0 314.542497 272.36609 157.248065L641.18837 627.358664 641.18837 312.816167zM556.650089 630.578839l45.306694 0 0-312.740124-45.306694 0 0 312.740124ZM104.336398 348.072191 127.447779 387.077636 396.593576 227.819911 373.504014 188.768218ZM127.720406 598.493895 150.831906 559.488688 419.977703 718.748903 396.888141 757.776048ZM432.307813 422.246501l51.700678-16.853652c-8.084649-30.370087-21.51084-52.570617-40.259599-66.542299-18.795126-14.025994-41.857413-21.011835-69.306989-21.011835-34.459845 0-62.411154 11.146632-83.807441 33.521838-24.641128 25.761756-36.973847 60.587199-36.973847 104.407786 0 46.287985 12.422725 82.506683 37.224654 108.677438 21.579027 22.721474 50.55823 34.069938 87.003188 34.069938 29.619918 0 54.419238-8.518196 74.400332-25.55186 14.227825-12.103731 24.662947-30.053583 31.264217-53.871138l-52.775058-12.970825c-3.402914 14.683192-10.11601 25.963469-20.188381 33.797311-10.047824 7.833723-21.89802 11.760191-35.577864 11.760191-19.569367 0-35.509678-7.171189-47.817968-21.489021-12.354657-14.317831-18.519653-37.952766-18.519653-70.904684 0-34.184491 6.004194-58.506507 18.039739-72.938891 12.011116-14.432622 27.632315-21.647332 46.860869-21.647332 14.067024 0 26.236214 4.564454 36.513025 13.79167C420.343064 387.625617 427.740513 402.265288 432.307813 422.246501zM905.609148 152.423702 905.609148 410.220798l52.477765 0 0-101.416717 103.488752 0L1061.575665 410.220798l52.526503 0 0-257.797096L1061.575784 152.423702l0 112.72083-103.488752 0 0-112.72083L905.609148 152.423702zM1009.82874 723.80335 641.005986 510.857226l0-425.935531 368.822635-212.921577 368.806033 212.921577L1378.634654 510.857226 1009.82874 723.80335zM1282.175263 140.638846 1009.82874-16.609219 737.487196 140.638846 737.487196 455.162132l272.341543 157.247947L1282.175263 455.162132 1282.175263 140.638846zM1197.680741 458.37958l45.306694 0 0-312.761825-45.306694 0 0 312.761825ZM745.345467 175.900088 768.456849 214.902687 1037.597309 55.598833 1014.534903 16.596471ZM768.729475 426.297363 791.840857 387.267372 1060.981318 546.549644 1037.91903 585.576671Z"  horiz-adv-x="1379" />

    
    <glyph glyph-name="canyin5" unicode="&#58968;" d="M920.805362 454.433862 861.821517 13.734603c-1.408677-10.29418-14.881411-18.565644-30.124021-18.565644l-248.396755 0c-15.27873 0-28.715344 8.271464-30.124021 18.565644l-58.983845 440.699259 0 0c-19.613122 0-35.542011 15.820529-35.542011 35.289171L458.650864 525.048325c0 19.540882 15.928889 35.361411 35.542011 35.361411l213.179824 0L707.372698 663.532134c-0.14448 5.09291 0.505679 10.1497 2.528395 14.953651 2.239436 6.140388 6.284868 11.161058 11.305538 15.17037l96.873651 96.223492c13.870053 13.761693 36.408889 13.761693 50.315062 0 13.870053-13.833933 13.870053-36.192169 0-49.953862l-89.866384-89.324586 0-90.227584 142.204162 0c19.649242 0 35.505891-15.820529 35.505891-35.361411l0-35.361411C956.239012 470.290511 940.382363 454.506102 920.805362 454.433862L920.805362 454.433862zM608.440212 68.781376l192.085785 0 46.955908 385.652487-285.925362 0L608.440212 68.781376 608.440212 68.781376zM472.340317 174.25157 186.089877 174.25157C193.783422 132.388571 252.839506 99.880635 324.609806 99.880635l93.008818 0c22.972275 0 44.283034 3.611993 63.390476 9.535661l9.535661-71.120141c-19.685362-4.659471-40.201481-7.765785-61.765079-7.765785l-115.222575 0c-107.74575 0-197.973333 62.017919-209.82067 144.335238-1.155838 8.307584 2.275556 16.651287 9.571781 23.008395 6.573827 5.634709 15.820529 8.668783 25.50067 9.318942L103.302998 207.192945c-19.685362 0-35.542011 15.820529-35.542011 35.289171s15.856649 35.361411 35.542011 35.361411l35.469771 0c-9.716261 0.650159-18.926843 3.684233-25.50067 9.391182-7.296226 6.212628-10.727619 14.520212-9.571781 22.863915 11.811217 82.317319 102.038801 144.407478 209.82067 144.407478l115.222575 0c2.094956 0 4.045432-0.433439 6.104268-0.433439l9.463422-70.542222c-8.596543 1.047478-17.518166 1.625397-26.692628 1.625397L324.609806 385.155838c-71.7703 0-130.826384-32.507937-138.519929-74.407055l267.973757 0L472.340317 174.25157 472.340317 174.25157zM472.340317 174.25157"  horiz-adv-x="1024" />

    
    <glyph glyph-name="fanhuidingbu" unicode="&#58971;" d="M30.332842 895.653099l963.333292 0 0-74.102718-963.333292 0 0 74.102718ZM564.392254 733.46316 512 785.856437 459.606723 733.46316 459.606723 733.46316 119.017674 392.874111 171.409928 340.480834 474.948129 644.019035 474.948129-127.653099 549.050848-127.653099 549.050848 644.019035 852.589049 340.480834 904.982326 392.874111 564.392254 733.46316Z"  horiz-adv-x="1024" />

    
    <glyph glyph-name="tianjiayaopin-01" unicode="&#59014;" d="M776.34762 606.052329h-60.286038v62.786998H759.553119V854.355531H272.549419v-185.515181h43.488467v-62.786998h-60.286038c-46.811142 0-84.873016-38.061874-84.873016-84.873016v-522.661828c0-46.811142 38.061874-84.873016 84.873016-84.873016h520.594749c46.811142 0 84.901669 38.061874 84.901669 84.873016V521.180336c0.001023 46.810119-38.089503 84.871993-84.900646 84.871993z m25.16924-607.534844c0-13.853519-11.287067-25.140587-25.170263-25.140587H255.752872c-13.853519 0-25.140587 11.287067-25.140587 25.140587v96.294137h298.643727v354.503966H230.611262V521.180336c0 13.853519 11.287067 25.140587 25.140586 25.140586h120.017444V668.84035h280.559861v-122.519428h120.017444c13.883195 0 25.170263-11.287067 25.170263-25.140586v-522.662851zM429.290253 304.979272c16.505929 0 29.865191-13.359262 29.865192-29.865191s-13.359262-29.865191-29.865192-29.865192h-53.521984v-53.54552c0-16.505929-13.356193-29.865191-29.865191-29.865191-16.505929 0-29.865191 13.359262-29.865192 29.865191v53.54552h-53.54859c-16.505929 0-29.865191 13.359262-29.865191 29.865192s13.359262 29.865191 29.865191 29.865191h53.54859v53.5578c0 16.505929 13.359262 29.853935 29.865192 29.853935 16.508999 0 29.865191-13.346983 29.865191-29.853935v-53.5578h53.521984z"  horiz-adv-x="1024" />

    
    <glyph glyph-name="chilun" unicode="&#58995;" d="M930.909091 384c0 34.909091 25.6 67.490909 62.836364 81.454545-4.654545 30.254545-13.963636 60.509091-23.272728 88.436364-39.563636-4.654545-76.8 9.309091-95.418182 39.563636-18.618182 30.254545-11.636364 69.818182 13.963637 102.4-18.618182 23.272727-39.563636 44.218182-62.836364 65.163637-34.909091-25.6-74.472727-32.581818-104.727273-13.963637-30.254545 18.618182-44.218182 55.854545-39.563636 95.418182-27.927273 9.309091-58.181818 18.618182-88.436364 23.272728-13.963636-37.236364-46.545455-62.836364-81.454545-62.836364s-67.490909 25.6-81.454545 62.836364c-30.254545-4.654545-60.509091-13.963636-88.436364-23.272728 4.654545-39.563636-9.309091-76.8-39.563636-95.418182-30.254545-18.618182-69.818182-11.636364-102.4 13.963637-23.272727-18.618182-44.218182-39.563636-65.163637-62.836364 23.272727-32.581818 30.254545-72.145455 13.963637-102.4-18.618182-30.254545-55.854545-44.218182-95.418182-39.563636-9.309091-27.927273-18.618182-58.181818-23.272728-88.436364C67.490909 451.490909 93.090909 418.909091 93.090909 384s-25.6-67.490909-62.836364-81.454545c4.654545-30.254545 13.963636-60.509091 23.272728-88.436364 39.563636 4.654545 79.127273-6.981818 95.418182-39.563636 18.618182-30.254545 11.636364-69.818182-13.963637-102.4 18.618182-23.272727 39.563636-44.218182 62.836364-65.163637 32.581818 25.6 72.145455 30.254545 102.4 13.963637 30.254545-18.618182 44.218182-55.854545 39.563636-95.418182 27.927273-9.309091 58.181818-18.618182 88.436364-23.272728 16.290909 37.236364 46.545455 62.836364 81.454545 62.836364s67.490909-25.6 81.454546-62.836364c30.254545 4.654545 58.181818 13.963636 88.436363 23.272728-4.654545 39.563636 9.309091 76.8 39.563637 95.418182 30.254545 18.618182 69.818182 11.636364 102.4-13.963637 23.272727 18.618182 44.218182 39.563636 65.163636 62.836364-25.6 32.581818-30.254545 72.145455-13.963636 102.4 18.618182 30.254545 55.854545 44.218182 95.418182 39.563636 9.309091 27.927273 18.618182 58.181818 23.272727 88.436364-34.909091 18.618182-60.509091 48.872727-60.509091 83.781818z m-660.945455-86.109091c-9.309091 27.927273-13.963636 55.854545-13.963636 86.109091 0 125.672727 90.763636 230.4 209.454545 251.345455v-225.745455l-195.490909-111.709091zM512 128c-76.8 0-146.618182 34.909091-195.490909 90.763636l195.490909 111.709091 195.490909-111.709091C658.618182 162.909091 588.8 128 512 128z m242.036364 169.890909L558.545455 409.6v225.745455c118.690909-20.945455 209.454545-125.672727 209.454545-251.345455 0-30.254545-4.654545-58.181818-13.963636-86.109091z"  horiz-adv-x="1024" />

    
    <glyph glyph-name="M-xiaoshikefu" unicode="&#58974;" d="M690.698 71.087l-107.255 146.07c-15.445 21.044-47.576 28.044-71.398 15.557L411.881 180.42c-44.37-25.673-119.584 76.66-147.176 128.029-40.26 74.897-66.589 179.849-31.138 200.532l104.522 54.96c23.777 12.531 34.773 42.02 24.387 65.617l-72.098 163.795c-10.364 23.596-40.215 36.737-66.34 29.195L49.902 772.352c-26.08-7.541-42.925-45.114-39.47-73.61 0 0-9.597-189.581 131.64-442.25 141.216-252.693 315.217-359.79 315.217-359.79 27.118-19.531 78.42-18.425 92.08-3.658l132.184 109.062c20.502 16.89 24.59 47.937 9.145 68.981zM488.178 368.6h72.233c19.893-0.97 30.37-9.302 31.41-24.928-1.04-16.619-10.455-24.928-28.271-24.928H428.5c-19.916 0-29.851 8.287-29.851 24.928-1.062 4.855 1.558 11.222 7.88 19.058 8.332 8.828 16.732 17.59 25.086 26.373 34.57 34.186 59.724 62.546 75.417 85.036 9.439 11.742 14.135 23.46 14.135 35.202-2.1 17.59-11.538 27.345-28.27 29.286-16.777 0-28.789-11.2-36.128-33.689-6.277-18.56-15.196-27.39-26.712-26.373-19.915 0-29.85 8.783-29.85 26.373 5.216 49.88 36.647 78.15 94.271 85.036 56.54-3.929 86.368-29.805 89.53-77.697 0-27.345-23.574-65.934-70.676-115.768-12.6-13.75-21-23.054-25.154-27.909z m252.895 8.784h-97.387c-17.815 0-27.254 7.361-28.27 22.016-1.061 5.87 1.016 11.741 6.255 17.59l89.552 151.014c7.293 14.632 20.931 21.97 40.824 21.97 30.393-1.987 46.086-17.59 47.147-46.876v-115.812h6.277c16.732-1.987 26.17-10.274 28.293-24.951-2.145-15.648-11.56-23.957-28.293-24.928h-6.277v-32.244c0-17.59-9.958-26.374-29.828-26.374-19.915 0-29.354 8.784-28.27 26.374v32.221h-0.023z m0 49.88v104.07h-1.58l-53.402-104.07h54.982zM403.955 776.71c52.295 26.825 112.38 42.021 176.191 41.863 200.849-0.564 362.702-152.979 361.595-340.37-0.79-130.512-80.384-243.592-196.423-300.042 0 0-30.482-21.834-14.112-45.77 17.387-29.195 48.028-13.66 48.028-13.66C917.987 186.516 1013.07 321.815 1014.02 478 1015.374 702.647 821.3 885.364 580.553 886.02 504.345 886.245 432.54 868.159 370.04 836.23c0 0-34.683-18.83-15.196-47.191 19.441-28.383 49.111-12.329 49.111-12.329z m0 0"  horiz-adv-x="1024" />

    
    <glyph glyph-name="icon-p_gongchangdanyuan" unicode="&#58888;" d="M245.76 186.368h-76.8c-8.192 0-14.336-6.144-14.336-14.336v-139.264c0-8.192 6.144-14.336 14.336-14.336H245.76c8.192 0 14.336 8.192 14.336 15.36V172.032c0 8.192-6.144 14.336-14.336 14.336z m-6.144-147.456h-64.512V165.888h64.512v-126.976zM415.744 186.368h-76.8c-8.192 0-14.336-6.144-14.336-14.336v-139.264c0-8.192 6.144-14.336 14.336-14.336h75.776c9.216 0 15.36 8.192 15.36 15.36V172.032c0 7.168-7.168 14.336-14.336 14.336zM409.6 38.912h-64.512V165.888H409.6v-126.976zM592.896 186.368h-76.8c-7.168 0-14.336-7.168-14.336-14.336v-139.264c0-7.168 7.168-14.336 14.336-14.336h76.8c8.192 0 14.336 8.192 14.336 15.36V172.032c0 8.192-6.144 14.336-14.336 14.336z m-6.144-147.456H522.24V165.888h64.512v-126.976zM950.272 452.608l-194.56 1.024-35.84 97.28v276.48c0 11.264-9.216 20.48-20.48 20.48h-143.36c-11.264 0-20.48-9.216-20.48-20.48v-331.776l-76.8-43.008h-36.864l-35.84 99.328V827.392c0 11.264-9.216 20.48-20.48 20.48H218.112c-11.264 0-20.48-9.216-20.48-20.48v-325.632l-82.944-49.152h-40.96c-11.264 0-20.48-9.216-20.48-20.48v-463.872c0-25.6 21.504-47.104 47.104-47.104h822.272c26.624 0 48.128 21.504 48.128 47.104V432.128c0 11.264-9.216 20.48-20.48 20.48z m-829.44-40.96c4.096 0 7.168 1.024 10.24 3.072l97.28 58.368c1.024 0 1.024 1.024 2.048 1.024l1.024 1.024 1.024 1.024 1.024 1.024c0 1.024 1.024 1.024 1.024 2.048s1.024 1.024 1.024 2.048 0 1.024 1.024 2.048c0 1.024 0 1.024 1.024 2.048v2.048 2.048 317.44h106.496v-262.144c0-1.024 0-1.024 1.024-2.048v-1.024L388.096 424.96c3.072-8.192 10.24-13.312 19.456-13.312h56.32c3.072 0 7.168 1.024 10.24 3.072l92.16 51.2h1.024c1.024 0 1.024 1.024 2.048 1.024s1.024 1.024 1.024 1.024l1.024 1.024c0 1.024 1.024 1.024 1.024 2.048s1.024 1.024 1.024 2.048 1.024 1.024 1.024 2.048 0 1.024 1.024 2.048c0 1.024 0 1.024 1.024 2.048v2.048 2.048V806.912h102.4V547.84c0-3.072 1.024-6.144 2.048-8.192v-2.048l40.96-111.616c3.072-8.192 10.24-13.312 19.456-13.312l188.416-1.024v-103.424H94.208V411.648h26.624z m801.792-449.536H100.352c-3.072 0-6.144 3.072-6.144 6.144V267.264h835.584v-299.008c0-3.072-3.072-6.144-7.168-6.144z"  horiz-adv-x="1024" />

    
    <glyph glyph-name="hezuo" unicode="&#58885;" d="M996.4544 429.8752c5.157547-8.779093 1.69984-20.394667-7.75168-25.944747l-52.206933-30.706346c-9.427627-5.546667-21.261653-2.932053-26.415787 5.853866l-140.65664 239.148374c-5.164373 8.77568-1.706667 20.391253 7.734613 25.934506l52.206934 30.706347c9.43104 5.55008 21.271893 2.93888 26.43968-5.840213l140.649813-239.151787zM119.842133 373.31968a19.821227 19.821227 0 0 0-25.678506-11.250347l-56.415574 22.029654a19.817813 19.817813 0 0 0-11.24352 25.668266L134.990507 687.581867a19.831467 19.831467 0 0 0 25.668266 11.25376l56.418987-22.03648a19.828053 19.828053 0 0 0 11.264-25.67168L119.842133 373.31968z m645.79584 234.284373l139.22304-235.933013-108.93312-113.595733-237.684053 256.3584s-12.62592 18.602667-26.118827 9.280853c-13.489493-9.321813-143.98464-76.895573-143.98464-76.895573s-41.946453-18.643627-55.924053-2.331307c-13.9776 16.31232-20.97152 49.015467 0 69.946027 20.974933 20.93056 174.848 117.210453 207.39072 126.81216 26.651307 7.867733 66.095787 18.8928 101.362347-11.79648 33.6384-29.272747 97.024-31.97952 124.668586-21.845334z m-245.44256-541.44c-13.74208-14.455467-36.59776-15.035733-51.05664-1.297066-14.45888 13.748907-15.035733 36.611413-1.293653 51.063466l32.914773 34.628267c13.74208 14.455467 36.604587 15.035733 51.063467 1.297067 14.455467-13.745493 15.035733-36.611413 1.297067-51.06688l-32.925014-34.624854z m-241.92 148.995414c-12.43136-13.083307-33.815893-12.939947-47.74912 0.310613-13.94688 13.257387-15.168853 34.60096-2.72384 47.680853l29.77792 31.32416c12.43136 13.083307 33.809067 12.939947 47.752534-0.3072 13.943467-13.253973 15.158613-34.60096 2.73408-47.680853l-29.791574-31.327573z m154.28608-106.909014c-12.076373-12.7488-33.409707-12.148053-47.643306 1.338027-14.230187 13.479253-15.988053 34.751147-3.904854 47.49312l69.205334 73.05216c12.076373 12.752213 33.41312 12.15488 47.63648-1.334613 14.240427-13.479253 15.99488-34.747733 3.91168-47.496534l-69.205334-73.05216z m-71.970133 56.214187c-10.57792-11.168427-30.508373-9.468587-44.50304 3.785387-13.994667 13.257387-16.766293 33.06496-6.188373 44.229973l60.634453 64.003413c10.57792 11.165013 30.498133 9.468587 44.496213-3.7888 13.99808-13.257387 16.769707-33.061547 6.188374-44.229973l-60.627627-64zM236.489387 297.065813l-19.749547-20.527786-79.097173 84.165973s-8.157867 3.024213 0 27.671893c8.15104 24.651093 96.699733 249.514667 96.699733 249.514667s12.817067 11.656533 22.135467 4.662613c9.325227-6.990507 27.57632-34.952533 46.998186-30.293333 19.41504 4.6592 100.973227 61.709653 130.102614 55.90016 29.125973-5.80608 58.251947-26.774187 58.251946-26.774187l-24.46336-15.14496s-24.681813 15.14496-39.724373 13.981014c-15.03232-1.163947-110.189227-63.501653-129.21856-61.170347-19.02592 2.33472-48.92672 22.72256-48.92672 22.72256s-86.903467-210.67776-84.3264-224.43008c1.303893-6.98368 71.318187-80.278187 71.318187-80.278187z m337.629866-191.00672s51.98848-17.506987 49.370454 39.294294l-79.520427 93.969066s-6.403413 19.623253 19.083947 18.752854l88.398506-100.99712s27.958613-14.677333 46.30528 4.7104c18.353493 19.387733 4.369067 38.611627 4.369067 38.611626l-81.26464 95.245654s-9.59488 12.2368 4.379307 22.719146c13.974187 10.48576 25.33376-8.73472 25.33376-8.73472l83.008853-99.7376s24.787627-18.455893 52.432213 4.488534c23.149227 19.22048 20.534613 53.080747 20.534614 53.080746l-0.256 16.397654 19.9168 12.875093s14.76608-70.47168-16.254294-98.43712c-31.0272-27.96544-77.42464-17.537707-77.42464-17.537707s-4.191573-37.164373-29.53216-49.394346c-25.340587-12.240213-49.803947-4.369067-49.803946-4.369067s0.866987-32.334507-28.83584-47.18592c-29.713067-14.85824-67.28704 0-67.28704 0l17.046186 26.248533z"  horiz-adv-x="1024" />

    
    <glyph glyph-name="dianhua" unicode="&#59376;" d="M599.459934 812.721295a39.980573 39.980573 0 0 1-6.580882 0.816598c-19.699668 0.753153-36.935214-12.715603-40.904619-32.064276-2.188852-10.498098-0.149403-21.228487 5.771447-30.218232 5.901407-8.979512 14.945387-15.114233 25.452695-17.258059 84.593654-17.460674 157.425426-66.908876 205.061353-139.233088 47.614437-72.354911 64.214511-158.783353 46.807049-243.375983-2.187829-10.530844-0.149403-21.239743 5.77247-30.207999 5.901407-8.979512 14.945387-15.102976 25.452695-17.279549 2.207271-0.434905 4.437056-0.701988 6.602372-0.806365 8.42795-0.318248 16.57756 1.974981 23.627116 6.602372 8.978489 5.91164 15.113209 14.965853 17.278525 25.462928 44.962028 218.317261-96.03217 432.568926-314.340221 477.561653zM668.664086 208.918449c2.376117-1.550309 55.425334-35.610032 96.183619-77.470419 15.346523-15.835663 41.054021-42.328038 40.373523-73.066109-0.573051-20.99415-12.417821-42.052768-36.235272-64.277955-5.922896-5.815449-58.972113-55.362912-143.83899-55.362912-23.245424 0-47.125297 3.693112-70.985727 10.955516-25.069979 7.599072-50.565652 19.339464-75.699076 34.833343-99.239212 58.609863-175.829588 134.074601-248.555959 244.766656-125.010155 190.244902-128.59889 353.178785-128.024816 383.88411 0.212848 141.715629 118.239961 197.460234 131.696438 203.361641 18.511609 8.586562 34.68701 12.715603 49.588395 12.715603 7.133468 0 13.969153-0.966001 20.294209-2.898003 13.012362-3.947915 31.077809-14.178931 43.219337-40.48097 16.557094-35.68371 32.224935-86.842881 42.922579-140.40068 11.251252-55.584969-19.912515-71.187319-50.055023-86.269829l-1.190105-0.51984s-53.324486-22.2477-62.706157-26.110681c-9.212826-3.841491-14.011108-14.22191-10.869559-23.711028 21.503756-65.147766 54.343699-132.705418 94.931093-195.368596 39.929408-61.657268 87.415932-118.55821 137.301086-164.622338 3.566222-3.247974 8.150634-5.073552 12.992919-5.073552l1.635243 0.084934c5.242398 0.423649 10.18906 3.078105 13.480012 7.30129 8.107655 10.422374 20.546965 25.441439 33.666774 37.933961 24.87862 23.657816 47.379077 35.142381 68.778457 35.142381 5.858428 0 11.675924-0.859577 17.279548-2.569522 5.370311-1.644453 14.052041-6.313799 23.817452-12.777001zM499.860519 483.149161c-10.529821 2.186805-19.572778 8.300037-25.473162 17.268292-5.944386 8.979512-7.981788 19.721157-5.816472 30.249954 4.033873 19.328207 21.227464 32.80822 40.905642 32.022321 2.187829-0.064468 4.3951-0.328481 6.601348-0.784875 93.296873-19.23304 153.563468-110.830201 134.350894-204.170053-2.14485-10.464329-8.257058-19.497053-17.236569-25.450649-7.068999-4.617158-15.261589-6.89913-23.626094-6.602371-2.166339 0.115634-4.373611 0.361227-6.580882 0.827854-10.55131 2.133593-19.61371 8.289804-25.515117 17.279549-5.901407 8.947789-7.939833 19.656689-5.773493 30.185486 4.967128 24.157189 0.254803 48.823985-13.374612 69.478398-13.586436 20.612457-34.326806 34.727942-58.461483 39.696094z m41.775452 125.922944c-21.695115 4.500501-35.706223 25.781176-31.248702 47.466058 3.990894 19.370163 21.185508 32.860409 40.885176 32.095999 2.164293-0.095167 4.394077-0.349971 6.601349-0.816598 75.506694-15.569604 140.466172-59.681264 183.006033-124.266212 42.476417-64.542992 57.313334-141.673673 41.733497-217.181391-2.166339-10.529821-8.30106-19.593244-17.280572-25.462928-7.067976-4.660136-15.198144-6.941086-23.60358-6.612605a40.742936 40.742936 0 0 0-6.623861 0.827855c-21.652136 4.446265-35.68371 25.738198-31.226189 47.465035 11.229762 54.480822 0.531096 110.182448-30.16502 156.809395-30.694069 46.603411-77.564563 78.455863-132.078131 89.675392z"  horiz-adv-x="1024" />

    
    <glyph glyph-name="eryanghualiu" unicode="&#58928;" d="M114.409 306.673v-30.71c0-58.679 20.945-88.02 62.835-88.02 37.515 0 56.251 20.238 56.251 60.756 0 21.872-6.894 39.68-20.723 53.509-13.61 13.787-39.372 32.655-77.327 56.604-39.372 24.833-69.242 49.49-89.744 73.881C25.463 457.084 15.3 486.292 15.3 520.361c0 93.189 52.007 139.808 156.025 139.808 55.454 0 94.825-13.61 118.067-40.74 23.463-26.91 35.218-70.434 35.218-130.485h-95.975V506.53c0 49.004-19.133 73.527-57.31 73.527-35.879 0-53.865-16.57-53.865-49.711 0-18.206 5.302-32.565 15.862-43.169 10.827-10.339 37.072-29.473 78.697-57.31 44.893-29.251 76.62-55.233 95.266-78.034 18.868-22.579 28.324-52.273 28.324-89.082 0-48.562-13.697-86.518-41.093-113.914-27.396-27.396-66.634-41.093-117.713-41.093-107.728 0-161.547 52.494-161.547 157.394v41.536h99.155z m298.615 19V431.28c0 87.225 13.344 147.186 40.034 179.842s70.876 49.004 132.561 49.004c69.019 0 115.063-18.427 138.084-55.233 23.022-36.587 34.51-94.47 34.51-173.654v-106.314c0-78.255-12.548-134.063-37.648-167.424-24.833-33.14-69.374-49.711-133.578-49.711-62.126 0-106.667 15.862-133.578 47.634-26.954 31.814-40.387 88.549-40.387 170.253z m102.16 143.961v-171.931c0-73.174 22.933-109.759 68.709-109.759 48.118 0 72.158 35.218 72.158 105.652V462.39c0 78.476-23.463 117.713-70.434 117.713s-70.434-36.851-70.434-110.467z m311.562-276.125c6.188 18.823 24.037 43.789 53.509 74.853l29.12 30.621c12.372 12.682 20.636 22.933 24.833 30.842 4.331 7.908 6.45 18.912 6.45 33.008 0 25.761-10.031 38.62-30.003 38.62-14.229 0-23.419-4.462-27.616-13.387-4.021-8.794-6.054-24.965-6.054-48.562h-58.017v13.387c0 64.734 30.357 97.078 91.07 97.078 31.063 0 54.261-8.263 69.462-24.833 15.422-16.391 23.067-36.763 23.067-61.066 0-32.786-13.697-63.055-41.007-90.848l-47.237-49.181c-21.562-22.004-32.346-40.916-32.346-56.736h115.859v-48.429H816.184c0.839 31.063 4.373 55.941 10.561 74.631z"  horiz-adv-x="1024" />

    
    <glyph glyph-name="youjirongjixinxi" unicode="&#58894;" d="M1016.561609 241.31959c0 17.332746-14.041794 31.38154-31.37254 31.38154H717.018997c-0.307995 0-0.605991-0.056999-0.914987-0.065999 75.284897-43.068369 126.058153-124.105182 126.058154-217.06482 0-72.497938-30.897547-137.738982-80.206825-183.387314H918.21405c41.975385 0 76.005887 25.018634 76.005886 55.877182V113.704459h-54.332204c-4.79893 0-8.688873 3.893943-8.688873 8.690873s3.890943 8.691873 8.688873 8.691873h54.332204v32.596522h-37.411452a7.911884 7.911884 0 0 0-7.913884 7.915884 7.912884 7.912884 0 0 0 7.913884 7.915884h37.411452v22.350673c0 3.114954-0.433994 6.14791-1.101984 9.124866 13.483802 3.518948 23.443657 15.742769 23.443657 30.328556zM775.906134 164.360717c-32.552523 39.065428-169.27652 176.611413-169.27652 176.611413s-22.790666 40.693404 0.812988 81.385808c23.601654 40.693404 73.241927 66.738022 45.575332 124.521176 0 0-20.346702 23.144661-61.853094 23.144661s-117.197283-74.41791-117.197283-199.756074c0-125.335164 104.174474-183.932306 104.174474-183.932306h-337.755052s101.73351 80.57182 101.733509 192.072187-81.386808 177.425401-104.175474 189.634222c0 0-61.854094 13.020809-77.317867-27.672595-15.462773-40.693404-7.323893-61.854094 0-72.434939 7.324893-10.580845 53.716213-28.485583 56.157177-61.854093 2.440964-33.367511-7.324893-68.365999-7.324892-68.365999L58.486643 186.74339s-47.611303-44.35635-47.611302-131.441075c0-87.082724 69.992975-183.119318 176.609413-183.119318h458.210288s160.325651 29.299571 160.325651 183.935306c-0.001-0.001 2.442964 69.178987-30.114559 108.242414zM627.009315-4.141814H192.947674c-49.916269 0-53.172221 65.109046-53.172221 65.109046h541.495067c-0.001-44.488348-54.261205-65.109046-54.261205-65.109046zM382.034904 608.703208m-95.222605 0a95.222605 95.222605 0 1 1 190.44521 0 95.222605 95.222605 0 1 1-190.44521 0ZM277.045442 769.03586m-63.48207 0a63.48207 63.48207 0 1 1 126.96414 0 63.48207 63.48207 0 1 1-126.96414 0ZM467.491652 832.51793m-63.48207 0a63.48207 63.48207 0 1 1 126.96414 0 63.48207 63.48207 0 1 1-126.96414 0Z"  horiz-adv-x="1024" />

    
    <glyph glyph-name="gongzuoshijian" unicode="&#59181;" d="M827.52 686.08H832a44.8 44.8 0 0 1 47.36 40.32v32h32.64a44.8 44.8 0 0 1 48 40.32V832H64v-33.28a44.8 44.8 0 0 1 47.36-40.32h31.36v-32a44.8 44.8 0 0 1 49.28-40.32h4.48a295.04 295.04 0 0 1 128-256l36.48-28.8a40.32 40.32 0 0 0 13.44-19.2c0-12.16-16.64-26.88-30.08-37.12a295.04 295.04 0 0 1-145.92-265.6H192a44.8 44.8 0 0 1-47.36-40.32v-32h-33.28a44.8 44.8 0 0 1-47.36-40.32V-64h896v33.28a44.8 44.8 0 0 1-47.36 40.32h-32.64v32a44.8 44.8 0 0 1-47.36 40.32h-4.48a295.68 295.68 0 0 1-145.92 264.96c-14.08 10.24-31.36 24.96-30.08 37.12a40.32 40.32 0 0 0 13.44 19.2l38.4 32.64a295.04 295.04 0 0 1 123.52 250.24zM618.88 452.48c-70.4-48.64-46.72-102.4 0-136.96a277.12 277.12 0 0 0 135.68-232.96h-87.68a181.76 181.76 0 0 1-55.68 128c-8.96 10.24-24.32 23.68-60.16 58.88S529.28 360.96 537.6 390.4s56.32 71.68 73.6 89.6 15.36 32 15.36 32H398.72s0-12.8 15.36-30.72 64-59.52 73.6-89.6 24.32-87.68-12.8-122.88-51.2-49.28-60.16-58.88a181.76 181.76 0 0 1-55.68-128H268.16a312.96 312.96 0 0 0 135.68 232.96c48 34.56 68.48 88.32 0 136.96a262.4 262.4 0 0 0-30.08 22.4 212.48 212.48 0 0 0-28.8 23.04 256 256 0 0 0-76.8 188.16h487.68c-0.64-28.16 7.04-133.76-136.96-232.96z"  horiz-adv-x="1024" />

    
    <glyph glyph-name="dizhi" unicode="&#58887;" d="M504.5 831.7c-177.6 0-291-143.3-291-320.9 0-177.6 247.7-432.8 291-432.8 43.3 0 291 255.2 291 432.8 0 177.6-113.4 320.9-291 320.9z m0-417.9c-70.1 0-126.8 56.7-126.8 126.8s56.7 126.8 126.8 126.8 126.9-56.7 126.9-126.8c0-70-56.7-126.8-126.9-126.8zM280.7 182.5c-106-22.4-171.6-58.2-171.6-111.9 0-83.6 179.1-134.3 402.9-134.3 223.9 0 402.9 50.7 402.9 134.3 0 55.2-70.1 92.5-183.6 114.9-16.4 3-31.3-7.5-34.3-23.9-3-16.4 7.5-31.3 23.9-34.3 85.1-16.4 135.8-43.3 135.8-56.7 0-3-4.5-7.5-16.4-16.4-16.4-10.4-40.3-20.9-71.6-29.8-67.2-19.4-158.2-29.8-255.2-29.8S324 5 258.3 24.4c-31.3 9-55.2 19.4-71.6 29.8-13.4 9-17.9 13.4-17.9 16.4 0 11.9 46.3 37.3 123.9 53.7 16.4 3 26.9 19.4 22.4 35.8-1.6 16.5-18 26.9-34.4 22.4z"  horiz-adv-x="1024" />

    
    <glyph glyph-name="jianjie" unicode="&#59656;" d="M912.94736836 673.70435566L702.31810978 873.16141815C690.41657781 884.41873441 666.90563485 893.6563516 650.11929082 893.6563516H302.43282519c-16.78634406 0-30.52766132-12.99069983-30.52766131-28.86198872v-120.94796534h-127.90471149c-16.78441086 0-30.52379196-12.99069983-30.52379195-28.86585809v-802.74981964c0-15.87322355 13.73357851-28.86392339 30.52379195-28.86392339h601.9714405c16.79021343 0 30.52379196 12.98489578 30.52379196 28.86392339v120.65584287h127.59904771c16.78827875 0 30.52379196 12.99069983 30.52379343 28.86972745V624.6298810999999c0 15.87902761-9.76962569 37.81328747-21.67115763 49.07447456zM577.46616381 155.27772383c0-15.87515824-13.73551321-28.86585808-30.52572663-28.86585806H343.33950508c-7.63385002 0-14.34877547 2.59813998-19.84297896 6.92772883-6.41313103 5.48259837-10.68081299 13.2750836-10.68081299 21.93812923v3.46289633c0 15.87515824 13.73551321 28.87166213 30.52572663 28.87166213h203.6009321c16.7921481 0 30.52572663-12.99069983 30.52572664-28.87166213v-3.46289633z m0 122.39309434c0-15.87902761-13.73551321-28.86779276-30.52572663-28.86779276H343.33950508c-7.32625154 0-14.04311167 2.30795367-19.23358757 6.63947723-7.02252243 5.2001493-11.29020438 13.28088764-11.29020438 22.22444766v3.46676571c0 15.87128887 13.73551321 28.86198871 30.52572663 28.8619887h203.6009321c16.7921481 0 30.52572663-12.99069983 30.52572664-28.8619887v-3.46289784z m0 122.10097485c0-15.88096229-13.73551321-28.86972745-30.52572663-28.86972744H343.33950508c-16.79021343 0-30.5315307 12.98876515-30.53153069 28.86972744v3.46289632c0 15.87322355 13.74131726 28.86198871 30.53153069 28.86198872h203.6009321c16.7921481 0 30.52572663-12.98683047 30.52572663-28.86198872v-3.46289632z m258.24699458-244.49406919c0-13.56913927-9.77156035-24.82258762-23.19560723-27.99916702a31.75031647 31.75031647 0 0 0-7.32818623-0.86475636H776.49568485V474.81992852c0 15.87515824-9.77156035 38.10153908-21.67309234 49.35885683L544.19333392 723.64358659c-11.90346667 10.96519524-35.40667084 20.20281243-52.19881895 20.20281095h-121.18785285v27.4187929c0 2.31375622 0.30953316 4.62364457 0.91892605 6.93159823 3.36036399 12.69857884 15.26576534 21.93812922 29.61260615 21.93812923H609.21261091c16.7921481 0 40.29341763-9.23761571 51.89508987-20.49493345l152.93236526-144.61367412c11.90153197-11.26118561 21.67309232-33.48563325 21.67309235-49.36465937v-430.38392713z m0 0"  horiz-adv-x="1024" />

    
    <glyph glyph-name="icon103-copy-copy" unicode="&#59303;" d="M824.328 360.74800000000005c-3.049 1.747-5.866 0.933-8.528 0.934-230.543 0.04699999-461.085 0.044-691.628 0.044-8.95500001 0-8.955 0.001-8.956 9.271 0 9.752 0.302 19.515-0.124 29.249-0.221 5.061 1.513 6.61599999 6.22500001 5.905 1.59-0.241 3.245-0.03700001 4.86999999-0.037 229.846 0 459.693-0.004 689.539 0.04 2.673 0.001 5.478-0.746 8.18099999 0.654-0.855 2.717-3.15 4.055-4.88199999 5.787-103.955 103.891-207.908 207.785-312.036 311.505-4.356 4.33899999-4.426 6.481 0.063 10.513 7.761 6.971 15.1 14.455 22.18 22.125 3.398 3.681 5.17 3.196 8.508-0.154 50.309-50.49099999 100.772-100.827 151.196-151.2 72.271-72.195 144.502-144.434 216.91299999-216.488 4.033-4.014 4.156-5.814 0.04700001-9.908-122.663-122.275-245.187-244.687-367.626-367.185-3.604-3.607-5.62-4.545-9.503-0.26-7.319 8.077-15.196 15.663-23.114 23.16800001-2.972 2.816-3.482 4.415-0.16 7.49299999 7.82700001 7.254 15.2 15.001 22.755 22.54600001 96.913 96.805 193.826 193.61000001 290.734 290.41899999 1.759 1.757 3.442 3.589 5.345 5.58z"  horiz-adv-x="1024" />

    
    <glyph glyph-name="biaoge" unicode="&#59960;" d="M448 576H768v-128H448v128z m0-256H768v-128H448v128zM128 896C57.344 896 0 838.144 0 768v-768c0-70.656 57.856-128 128-128h768c70.656 0 128 57.856 128 128V768c0 70.144-57.856 128-128 128H128z m320-896V768H896v-768H448z"  horiz-adv-x="1024" />

    
    <glyph glyph-name="skype" unicode="&#59797;" d="M922.599 319.138a415.126 415.126 0 0 1 5.103 64.885c0 229.592-186.114 415.699-415.718 415.699-22.031 0-43.736-1.815-64.872-5.12C408.826 818.29 363.637 832 315.21 832 176.473 832 64 719.544 64 580.795c0-48.416 13.718-93.565 37.397-131.928-3.277-21.19-5.08-42.763-5.08-64.852 0-229.61 186.11-415.66 415.659-415.66 22.05 0 43.761 1.7 64.895 5.035C615.197-50.253 660.348-64 708.765-64 847.54-64 960 48.485 960 187.23c0.01 48.434-13.699 93.574-37.401 131.908z m-213.24-124.18c-17.586-25.316-43.42-45.1-77.176-59.325-33.824-14.264-73.802-21.36-119.97-21.36-55.333 0-101.146 9.682-137.308 29.234-25.633 14-46.482 32.782-62.51 56.203-16.06 23.439-24.204 46.393-24.204 68.774 0 13.203 5.035 24.685 14.836 34.047 9.904 9.43 22.66 14.157 37.714 14.157 12.333 0 22.926-3.714 31.55-11.074 8.56-7.358 15.74-18.055 21.613-32.17 7.039-16.352 14.684-30.022 22.819-40.93 8.085-10.771 19.463-19.764 34.2-26.803 14.573-7.057 33.97-10.586 58.24-10.586 33.217 0 60.06 7.184 80.605 21.358 20.648 14.303 30.566 31.705 30.566 52.732 0 16.772-5.347 30.091-16.313 40.476-11.066 10.52-25.356 18.531-43.09 24.12-17.803 5.648-41.706 11.637-71.66 17.946-40.221 8.779-73.86 18.996-101.102 30.73-27.277 11.779-49 27.88-65.101 48.217-16.135 20.537-24.18 46.064-24.18 76.299 0 28.83 8.493 54.613 25.496 77.052 16.995 22.502 41.582 39.726 73.642 51.722 31.948 11.993 69.56 17.992 112.648 17.992 34.458 0 64.264-3.987 89.493-11.92 25.16-7.99 46.134-18.535 62.904-31.767 16.663-13.203 28.925-27.129 36.69-41.742 7.76-14.657 11.668-28.972 11.668-42.941 0-12.989-5.035-24.769-14.846-35.093-9.81-10.338-22.359-15.609-37.014-15.56-13.212 0-23.575 3.047-30.762 9.498-7 6.241-14.351 16.178-22.303 30.027-10.051 19.323-22.09 34.378-36.089 45.145-13.63 10.568-36.118 16.07-67.41 16.003-28.951 0-52.116-5.916-69.6-17.486-17.592-11.755-26.002-25.393-26.042-41.373 0.03-10.014 2.908-18.457 8.702-25.677 5.883-7.286 14.067-13.6 24.587-18.923 10.525-5.406 21.23-9.586 31.987-12.594 10.885-3.086 28.944-7.546 54.046-13.451 31.481-6.785 60.035-14.365 85.694-22.627 25.608-8.304 47.463-18.317 65.518-30.247 18.198-11.895 32.422-27.06 42.576-45.377 10.226-18.346 15.32-40.754 15.32-67.123 0.039-31.75-8.806-60.306-26.434-85.583z"  horiz-adv-x="1024" />

    
    <glyph glyph-name="gongnengshezhi" unicode="&#58907;" d="M0.00064 816.270949C0.00064 842.50603 21.244657 863.814035 47.543726 863.814035h333.761419c26.235081 0 47.543086-21.308005 47.543086-47.543086v-333.76142c0-26.235081-21.308005-47.543086-47.543086-47.543085H47.543726A47.543086 47.543086 0 0 0 0.00064 482.509529V816.270949zM717.818049 880.322939c18.556521 18.556521 48.630882 18.556521 67.187403 0l236.05174-235.987752c18.556521-18.556521 18.556521-48.630882 0-67.187402l-236.05174-236.051741c-18.556521-18.556521-48.630882-18.556521-67.187403 0L481.766309 577.147785a47.543086 47.543086 0 0 0 0 67.187402L717.818049 880.322939z m16.508905-132.711116L614.541414 627.762295a24.123477 24.123477 0 0 1 0-34.105606l119.78554-119.849528a24.123477 24.123477 0 0 1 34.169593 0l119.849528 119.849528a24.123477 24.123477 0 0 1 0 34.105606L768.496547 747.611823a24.123477 24.123477 0 0 1-34.169593 0z m-188.764607-494.115354c0 26.235081 21.308005 47.543086 47.543086 47.543086h333.76142c26.235081 0 47.543086-21.308005 47.543085-47.543086v-333.761419c0-26.235081-21.244017-47.543086-47.543085-47.543086H593.169421a47.543086 47.543086 0 0 0-47.479098 47.543086v333.761419z m-545.561707 0c0 26.235081 21.244017 47.543086 47.543086 47.543086h333.761419c26.235081 0 47.543086-21.308005 47.543086-47.543086v-333.761419c0-26.235081-21.308005-47.543086-47.543086-47.543086H47.543726A47.543086 47.543086 0 0 0 0.00064-80.26495v333.761419z"  horiz-adv-x="1087" />

    
    <glyph glyph-name="dianhua2" unicode="&#59018;" d="M35.648004 794.745875C-1.580877 748.408767-83.944418 527.787928 269.12922 166.45896c372.08906-380.69294 612.171744-299.231232 653.405448-256.297725L673.84411 158.452309c-34.728113-34.627243-79.461293-3.804083-165.529047 66.10256-56.745654 46.23424-122.196057 108.534715-178.939713 178.737974-39.831516 49.086554-74.958114 100.828675-38.72994 137.105786L35.648004 794.745875zM1012.504379-0.972628c16.111176 16.115171 14.509246 40.681418-0.20174 55.446334v0.197744l-194.149054 193.449958c-15.412079 15.412079-39.829519 15.111468-55.142726-0.099871l-70.453936-70.253195 249.492521-249.142973s70.355063 70.20326 70.253195 70.303131l0.20174 0.098872zM380.415378 629.966858c16.012303 16.214043 14.611115 40.684414 0 55.244594v0.300612S180.659571 884.516842 180.560698 884.516842c-15.413078 15.51195-39.931387 15.111468-55.143724 0L55.062909 814.161779 309.960444 559.564856s70.454934 70.104387 70.454934 70.203259v0.198743z"  horiz-adv-x="1025" />

    
    <glyph glyph-name="jiantou7" unicode="&#58889;" d="M994.7645291 355.59777066000004l-972.72827614 0c-12.60791937 0-22.82779541 10.21884404-22.82779541 22.82779542 0 12.61411136 10.21884404 22.82779541 22.82779541 22.82779541l917.64435173 0-198.26332477 198.22204484c0 0-6.88549055 16.36852003 8.3426717 27.64103401 13.72866919 10.16311615 29.21586294-0.65531873 29.21586294-0.65531871l231.93122701-231.8878831c6.51293928-6.54493122 8.46857546-16.34684808 4.93501436-24.8835354-3.52633712-8.5026314-11.85662484-14.09090048-21.07752683-14.09090047v0zM994.7645291 355.59777066000004z"  horiz-adv-x="1024" />

    
    <glyph glyph-name="dizhi1" unicode="&#59170;" d="M759.488 156.992a33.984 33.984 0 0 1-40.128-27.264 33.344 33.344 0 0 1 27.904-39.296c99.456-18.752 158.72-49.472 158.72-64.832 0-3.392-5.12-8.512-19.136-18.752-19.2-11.968-47.104-23.936-83.712-34.176-78.528-22.144-184.96-34.112-298.368-34.112-113.408 0-221.568 11.968-298.304 34.112-36.672 10.24-64.576 22.208-83.776 34.176-15.68 10.24-20.928 15.36-20.928 18.752 0 13.632 54.08 42.688 144.832 61.44 19.2 3.392 31.36 22.208 26.176 40.96-1.728 18.752-20.928 30.72-40.128 25.6C108.736 128 32 87.04 32 25.6 32-69.952 241.344-128 503.04-128s471.04 58.048 471.04 153.6c0 63.168-81.984 105.792-214.592 131.392zM238.912 419.968L474.88 51.2c5.12-10.112 15.872-17.088 28.224-17.088s23.04 6.976 28.16 17.088l235.968 368.768h-0.64a301.44 301.44 0 0 1 51.2 168.256C817.792 758.144 676.928 896 503.04 896 329.216 896 188.288 758.144 188.288 588.16c0-62.08 18.752-119.744 51.2-168.192h-0.576zM503.04 728.576c79.232 0 143.488-62.848 143.488-140.352 0-77.568-64.256-140.352-143.488-140.352S359.552 510.656 359.552 588.16c0 77.44 64.256 140.352 143.488 140.352z"  horiz-adv-x="1024" />

    
    <glyph glyph-name="fanhui" unicode="&#58922;" d="M213.39648 577.77664h381.78816c16.19968 0 32.4096 0.11264 48.60928-0.09216 57.24672-0.71168 113.67424-23.10144 157.56288-59.43296 90.9056-75.24864 117.5552-206.3872 66.02752-311.91552-42.55744-87.14752-134.2208-143.232-230.85568-143.232H184.3712c-33.01888 0-33.01888-51.2 0-51.2h382.52544c63.34976 0 124.7744-1.73568 185.07264 22.49216 107.70944 43.27424 178.8928 143.39072 191.744 257.55136 12.7488 113.31584-45.45536 223.62624-138.09664 286.61248-63.70304 43.3152-136.10496 50.41664-210.44224 50.41664H213.38624c-33.00864 0-33.00864-51.2 0.01024-51.2zM322.59584 785.6896a255707.4944 255707.4944 0 0 0-162.4064-162.5088c-9.86112-9.86112-9.86112-26.3424 0-36.20352 49.49504-49.49504 98.98496-98.98496 148.39296-148.48 23.32672-23.36256 59.50464 12.83584 36.14208 36.20352a225198.63296 225198.63296 0 0 1-148.33152 148.48v-36.20352c54.1696 54.1696 108.26752 108.3392 162.3552 162.5088 23.3728 23.36256-12.8256 59.56608-36.15232 36.20352z"  horiz-adv-x="1024" />

    
    <glyph glyph-name="huaxueshiji" unicode="&#58933;" d="M750.21500242 192.98739695999996l26.43823922-88.42728139-17.6291138-44.22522783-70.48386633-26.51717662-326.03540718-8.8540256-96.9329685 44.21364068v53.06766629l-28.85415853 20.17973363s162.92247176 53.88818085 320.22662759 16.85422361c157.30415583-37.03395724 193.27064753 33.70772302 193.27064753 33.70772304zM274.3918742 192.98739695999996l-26.43823923-88.42728139 17.61825086-44.22522783 70.49472928-26.51717662 326.03540717-8.8540256 96.92210556 44.21364068v53.06766629l17.6291138 8.84243847s-35.24736464 44.21364068-264.34980334-8.84243847c-229.10243869-53.07925343-237.91156411 70.74168026-237.91156411 70.74168028zM754.22632647 113.01003957L627.68603516 683.17061628l42.69717335 0.87627768c9.50073302 0.29402375 17.09031164 8.06537569 17.09031164 17.61028468v0.07966161c0 9.74913239-7.86549747 17.68125593-17.46110021 17.68125593H352.48269987c-9.6064657 0-17.47196318-7.92126059-17.47196316-17.68560111 0-9.61805285 7.66272247-17.49441325 17.0787245-17.68560111l42.69717335-0.88786483L268.2354803 113.01003957c-7.52802194-35.20246447 13.19123805-60.88826358 49.13527966-60.88826359h387.7101481c36.01139188 0 56.66330159 25.6293118 49.13527965 60.89912654zM671.10233557 648.68655467l117.59646534-528.26146782c12.22443581-57.25859106-25.13468564-103.6745131-83.6070299-103.6745131H317.38162291c-58.39340687 0-95.82060278 46.46082223-83.59616697 103.6745131L351.3594712 648.68655467l-19.44974363 4.18006182c-19.07316148 8.34781229-32.15721846 27.05525458-32.15721845 48.81880582v0.04924534C299.75250912 731.03565538 323.40404045 754.78857422 352.47183692 754.78857422h317.52972007c29.12355959 0 52.71932781-23.82026911 52.71932781-53.05680334 0-21.95546329-13.25858831-40.78674317-32.13476837-48.86515439l-19.48305666-4.18006182zM513.84235573 365.68507219c0-29.30243612 23.66891205-53.05680334 52.86561548-53.05680336 29.19670344 0 52.86561548 23.75436724 52.86561549 53.05680336s-23.66891205 53.05680334-52.86561549 53.05680333c-29.19670344 0-52.86561548-23.75436724-52.86561548-53.05680333zM443.34762644 206.51611054c0-19.5351988 15.78096449-35.37120223 35.24736465-35.37120222s35.24736464 15.83600342 35.24736464 35.37120222c0 19.5351988-15.78096449 35.37120223-35.24736464 35.37120223s-35.24736464-15.83600342-35.24736465-35.37120223zM584.32622206 162.30246983999996v-0.00434517c0-14.65121805 11.83699072-26.52803957 26.43823922-26.52803958s26.43823922 11.87682152 26.43823921 26.52803958v0.00434517 0.00434519c0 14.65121805-11.83699072 26.52803957-26.43823921 26.52803957s-26.43823922-11.87682152-26.43823922-26.52803957v-0.00434519zM478.59499109 162.30246983999996c24.34096635 0.04490018 44.05649006 19.78721917 44.05649007 44.13470329v0.08328259 0.07459223c0 24.34748411-19.71552372 44.09052729-44.05214489 44.13470328-24.34531153-0.04490018-44.06083524-19.78721917-44.06083525-44.13470328v-0.15787482c0-24.34748411 19.71552372-44.09052729 44.05214489-44.13470329z m0 17.68487693c-14.60704208 0.02534688-26.43823922 11.87247634-26.43823922 26.48313938v0.03548563 0.05431474c0 14.61066306 11.83119715 26.45779252 26.43606663 26.4831394 14.60921466 0 26.441136-11.87682152 26.441136-26.52803958v-0.04490019c0-14.61066306-11.83119715-26.45779252-26.43606663-26.48313938z m132.16947019-53.06766629c19.4750905 0.0383824 35.24736464 15.83455504 35.24736464 35.31471491v0.07097125 0.05286633c0 19.48015988-15.77227414 35.27633249-35.24374366 35.31471491-19.4736421-0.04490018-35.24012268-15.83817602-35.24012268-35.31471491V162.23439539000003c0-19.4765389 15.76648057-35.26981474 35.23215652-35.31471491z m0 17.6856011c-9.73464847 0.01882911-17.61825085 7.91474283-17.61825085 17.6515639v0.04707276c0 9.76144373 7.88794755 17.68270433 17.61825085 17.68270433 9.74189043 0 17.62911379-7.92126059 17.6291138-17.68560111 0-9.77520346-7.88794755-17.69646407-17.6291138-17.69646406z m-44.04490292 159.1805488c34.05606151 0 61.67474092 27.71934271 61.67474091 61.91010475 0 34.1798991-27.61795521 61.89924181-61.68560386 61.89924181s-61.68560385-27.71934271-61.68560385-61.91010475c0-34.1798991 27.61795521-61.89924181 61.68560385-61.89924181z m0 17.68560111c-24.34603572 0.0383824-44.06807721 19.78359818-44.0680772 44.13470328v0.08328259 0.08545518c0 24.34748411 19.71552372 44.09052729 44.05214488 44.13470328 24.34531153-0.04490018 44.06083524-19.78721917 44.06083524-44.13470328V365.60613477000004c0-24.34386312-19.70900595-44.08400953-44.04055775-44.13470329zM364.04377175 524.86562097h52.86561547c4.87239361 0.00651776 8.81998837 3.95773351 8.81998838 8.83157552v0.01158713 0.01086296c0 4.873842-3.94759477 8.82505775-8.81998838 8.83157551h-52.86633967c-4.86804843-0.01303553-8.80912542-3.96207868-8.80912543-8.83157551v-0.01158715c0-4.88687753 3.93238664-8.84243846 8.80912543-8.84243845z m-35.24736464-60.6405884h70.49472927c4.86804843 0.01303553 8.80912542 3.96207868 8.80912543 8.83157551v0.01158714 0.01086296c0 4.86949683-3.94107699 8.81853998-8.80767703 8.8315755h-70.49617767c-4.86804843-0.01303553-8.80912542-3.96207868-8.80912543-8.8315755v-0.01158715c0-4.87601458 3.93238664-8.84243846 8.80912543-8.84243846z m-8.81998838-65.68534077h70.50631642c4.86804843 0.01303553 8.80912542 3.96207868 8.80912543 8.83157551v0.01158716 0.01086293c0 4.86949683-3.94107699 8.81853998-8.80767702 8.83157552h-70.50704063c-4.86804843-0.01303553-8.80912542-3.96207868-8.80912543-8.83157552v-0.01158713c0-4.88687753 3.93238664-8.84243846 8.80912543-8.84243847z m-17.61825084-65.6969279h79.30385469c4.87239361 0.00651776 8.81998837 3.95773351 8.81998838 8.83157552v0.01158714 0.01086294c0 4.873842-3.94759477 8.82505775-8.81998838 8.83157551H302.35744369c-4.86804843-0.01303553-8.80912542-3.96207868-8.80912542-8.83157551v-0.01158714c0-4.88687753 3.94397378-8.84243846 8.80912542-8.84243846z m-8.80912543-65.6976521h70.49472929c4.86804843 0.01303553 8.80912542 3.96207868 8.80912541 8.83157551v0.02389849 0.01013875c0 4.86949683-3.94107699 8.81853998-8.80767703 8.83157551h-70.49617767c-4.86804843-0.01303553-8.80912542-3.96207868-8.80912542-8.83157551v-0.01158714c0-4.88687753 3.94397378-8.84243846 8.80912542-8.84243848z m-17.61752664-65.68534077h79.3038547c4.86804843 0.01303553 8.80912542 3.96207868 8.80912542 8.83157553v0.01158713 0.01086295c0 4.86949683-3.94107699 8.81853998-8.80767703 8.83157551H275.93151582c-4.87239361-0.00651776-8.81998837-3.95773351-8.81998838-8.83157551v-0.01158715c0-4.88687753 3.95483673-8.84243846 8.81998838-8.84243846z m-17.62983799-64.539662h82.84300266c4.86804843 0.01303553 8.80912542 3.96207868 8.80912543 8.83157552v0.01158714 0.01086295c0 4.86949683-3.94107699 8.81853998-8.80767703 8.83157551H258.30167783c-4.86804843-0.01303553-8.80912542-3.96207868-8.80912543-8.83157551v-0.01158715c0-4.87601458 3.94397378-8.84243846 8.80912543-8.84243846z"  horiz-adv-x="1024" />

    
    <glyph glyph-name="jihuashuguanli" unicode="&#58896;" d="M922.7 552.9L846.6 610l38.1 57.1 76.1-57.1-38.1-57.1zM599.1 210.2v76.1l228.4 304.6 76.1-57.1-228.4-304.5-76.1-19.1z m-38.3-53.5l130.9 31 174 227.1V58c0-52.6-42.6-95.2-95.2-95.2H161.3c-52.6 0-95.2 42.6-95.2 95.2V705.2c0 52.6 42.6 95.2 95.2 95.2h609.1c52.3 0 94.7-42.3 95.1-94.5L563.3 291.7l-2.5-135z m-190.1-3.5h76.1c21 0 38.1 17.1 38.1 38.1s-17.1 38.1-38.1 38.1h-76.1c-21 0-38.1-17.1-38.1-38.1 0-21.2 17-38.1 38.1-38.1z m0 190.3h133.2c21 0 38.1 17.1 38.1 38.1s-17.1 38.1-38.1 38.1H370.7c-21 0-38.1-17.1-38.1-38.1s17-38.1 38.1-38.1zM237.4 610h-19.1c-21 0-38.1-17.1-38.1-38.1s17.1-38.1 38.1-38.1h19.1c21 0 38.1 17.1 38.1 38.1s-17 38.1-38.1 38.1z m0-190.4h-19.1c-21 0-38.1-17.1-38.1-38.1s17.1-38.1 38.1-38.1h19.1c21 0 38.1 17.1 38.1 38.1 0 21.1-17 38.1-38.1 38.1z m0-190.3h-19.1c-21 0-38.1-17.1-38.1-38.1s17.1-38.1 38.1-38.1h19.1c21 0 38.1 17.1 38.1 38.1s-17 38.1-38.1 38.1z m437.8 342.6c0 21-17.1 38.1-38.1 38.1H370.7c-21 0-38.1-17.1-38.1-38.1s17.1-38.1 38.1-38.1h266.5c21 0.1 38 17.1 38 38.1z"  horiz-adv-x="1024" />

    
    <glyph glyph-name="Facebook" unicode="&#58880;" d="M589.572 815.69c-27.149 0-52.789-3.018-82.955-15.084-61.839-25.639-92.003-82.955-92.003-174.957v-88.987h-85.969v-147.808h85.969v-426.833h174.957V388.854h119.152l16.59 147.808H589.569v66.363c0 21.115 1.508 36.197 7.54 43.741 7.54 13.573 22.624 19.607 46.755 19.607h79.937V814.181H589.566z"  horiz-adv-x="1024" />

    
    <glyph glyph-name="icon-up1" unicode="&#58886;" d="M870.731 223.452l-362.024 362.024-360.927-360.927Z"  horiz-adv-x="1024" />

    
    <glyph glyph-name="caidan" unicode="&#59002;" d="M934.5372918518519 674.1836989629629H116.1819780740741c-42.253729185185186 0-78.91505303703704 36.03994548148148-78.91505303703704 78.91505303703704 0 42.253729185185186 36.03994548148148 78.91505303703704 78.91505303703704 78.91505303703704H934.5372918518519c42.253729185185186 0 78.91505303703704-36.03994548148148 78.91505303703704-78.91505303703704s-34.17581037037037-78.91505303703704-78.91505303703704-78.91505303703704z m0-727.6340717037037H116.1819780740741c-42.253729185185186 0-78.91505303703704 36.03994548148148-78.91505303703704 78.91505303703704 0 42.253729185185186 36.03994548148148 78.91505303703704 78.91505303703704 78.91505303703704H934.5372918518519c42.253729185185186 0 78.91505303703704-36.03994548148148 78.91505303703704-78.91505303703704 0-44.73924266666666-34.17581037037037-78.91505303703704-78.91505303703704-78.91505303703704z m0 363.5063466666667H116.1819780740741c-42.253729185185186 0-78.91505303703704 36.03994548148148-78.91505303703704 78.91505303703704 0 42.253729185185186 36.03994548148148 78.91505303703704 78.91505303703704 78.91505303703704H934.5372918518519c42.253729185185186 0 78.91505303703704-36.03994548148148 78.91505303703704-78.91505303703704 0-42.253729185185186-34.17581037037037-78.91505303703704-78.91505303703704-78.91505303703704z"  horiz-adv-x="1024" />

    
    <glyph glyph-name="yuandian" unicode="&#58908;" d="M514 383.6m-445.4 0a445.4 445.4 0 1 1 890.8 0 445.4 445.4 0 1 1-890.8 0Z"  horiz-adv-x="1024" />

    
    <glyph glyph-name="icon-" unicode="&#58881;" d="M891.597561 51.57365c-68.083642-59.705326-129.410961-113.38971-202.630418-177.599253 0 31.289327-2.495259 51.066068 0.499645 70.085187 6.756324 43.553605-13.512648 54.565064-53.682902 56.950608-156.571176 9.637065-310.140036 37.792122-451.444618 109.127163-50.809574 25.53674-99.490097 60.703133-139.420165 101.126915-60.200523 61.20426-58.449542 138.548381-3.380386 205.259113 51.432276 62.077527 120.522621 97.119379 195.241012 122.393695-39.550516-24.02298-81.845372-44.423906-118.270513-72.586376C38.533435 404.509669 38.162779 327.783803 117.505479 265.457195c102.007595-80.098839 225.281969-107.50517 349.189424-129.158915 70.833913-12.516324 143.049632-17.520185 218.894819-26.283983 2.502672 40.555736 4.378193 73.096399 6.756324 115.398668 68.835334-60.070052 131.167872-114.517988 199.251515-173.837832z m51.814793-45.930253c-1.750981 5.628046-4.501251 11.514069-5.134332 17.890841-9.761606 84.858067-3.629467 85.986345 80.100322 101.631008 110.016738 20.648524 219.520487 46.30684 326.402954 78.601387 45.937666 13.884787 89.488306 44.671504 126.416058 76.71104 60.439226 52.69399 59.938098 116.145911 0.493714 170.841446-33.413929 30.665142-74.709496 53.066129-111.257695 80.72599 75.590175-31.289327 146.30696-70.209727 190.607808-143.304644 32.039536-52.935658 32.920215-110.766946-7.758579-157.5675-35.298346-40.434161-77.606546-77.599133-123.521972-105.135935-119.035548-71.2105-371.219756-131.537046-476.348278-120.393633zM1504.354791 895.620448c-59.442901 0-107.497757-48.309867-107.497757-107.50517 0-59.576338 48.185327-107.638606 107.497757-107.638607 59.697913 0 107.631193 48.185327 107.631193 107.638607 0 59.195303-47.93328 107.50517-107.631193 107.50517z m0-159.196906c-28.531644 0-51.559782 23.149714-51.559782 51.690253 0 28.534609 23.151196 51.438207 51.559782 51.438207 28.663597 0 51.814794-23.028138 51.814793-51.438207 0-28.663597-23.151196-51.690253-51.814793-51.690253zM257.042771 882.917313h305.48904l-168.052627-579.335888H293.174353l153.127037 533.937897h-95.027394v-119.27425M399.167245 297.341055H284.901303L438.02241 831.280435h-80.515457V712.006184h-106.704552V889.156201h320.032113z m528.486284 0H609.698574V572.239084c0 8.192988 0.803583 16.07759 2.410749 23.428447 0.647907 7.668139 3.126857 14.139799 7.356787 19.259305 2.83478 4.578347 8.479135 9.204139 17.699583 14.494146 10.000309 6.007598 22.951042 10.145606 38.401481 12.23166 15.967876 2.301035 38.454856 3.475274 66.787828 3.475274h71.521851V834.238272h-89.621742V712.006184h-114.556537V814.160559c0 29.668818 12.833606 50.702825 38.139057 62.517866 24.100076 11.257575 64.262917 16.734393 122.795486 16.734394 56.416863 0 95.328367-5.631011 118.973278-17.207351 25.226872-12.075984 38.047134-32.245621 38.047134-59.912894v-153.653369c0-17.582455-1.414425-29.953482-4.326302-37.815844l-0.231289-0.539676c-3.759938-7.79861-11.543722-14.802532-23.799104-21.420972-10.523675-5.983876-23.636015-10.224185-38.988601-12.593421-13.543783-2.054919-35.166393-3.051243-66.114715-3.051243h-69.947303V355.2272h89.630638v147.705076h113.776676z m220.902293-4.237344c-55.405712 0-94.286082 5.61322-118.879872 17.151011-25.8303 12.083397-38.926331 32.261929-38.926331 59.960338V798.029594c0 20.810131 1.952618 35.737203 5.952741 45.644107l0.06227 0.148262c4.655444 10.72383 12.332478 19.512833 22.819088 26.114965 14.24803 8.904648 31.366424 15.180602 50.911875 18.703319l0.137884 0.014827c20.09254 3.150579 47.636755 4.757745 81.836476 4.757745 35.854331 0 64.557959-2.186873 85.307302-6.502796 20.740447-4.441946 37.465945-11.846177 49.736153-22.015505 8.65705-6.594718 14.580139-13.736525 17.61359-21.220817l0.062271-0.183846c1.513761-4.108355 3.519753-13.29915 3.519752-45.460261v-425.691414c0-19.637374-5.582085-35.482192-16.584648-47.10301-10.803892-11.954409-28.039412-20.440957-51.227674-25.213528-22.349096-4.593174-53.42196-6.91793-92.340877-6.917931z m-43.251149 59.158238h89.630638V834.238272h-89.630638z"  horiz-adv-x="1613" />

    
    <glyph glyph-name="ttww" unicode="&#58903;" d="M923.2 606.4c0-354.4-232.8-609.6-575.2-620.8-144.8-11.2-244 32.8-332.8 99.2 99.2-11.2 232.8 21.6 298.4 88.8-99.2 0-155.2 56-188 132h88.8C125.6 339.2 58.4 405.6 58.4 516c21.6-11.2 44-21.6 88.8-21.6-77.6 44-121.6 188-66.4 276.8 99.2-110.4 220.8-210.4 421.6-220.8-56 220.8 232.8 332.8 354.4 188 56 11.2 88.8 32.8 132 56-11.2-56-44-88.8-88.8-110.4 44 0 77.6 11.2 110.4 32.8-10.4-44-54.4-88.8-87.2-110.4z"  horiz-adv-x="1024" />

    
    <glyph glyph-name="xiazai" unicode="&#58934;" d="M384 448V768h256v-320h192l-320-320-320 320h192z m-192-384h640v-64H192v64z"  horiz-adv-x="1024" />

    
    <glyph glyph-name="chahao" unicode="&#58897;" d="M1023.035952 725.092279l-852.12806-852.128061L0.241225 43.269303l852.248588 852.12806zM170.425782 896l852.128061-852.12806L852.248758-126.794727l-852.12806 852.248588z"  horiz-adv-x="1024" />

    
    <glyph glyph-name="jinshuyuancaijiance" unicode="&#59267;" d="M805.266944 374.784c0 2.218667 0 3.072-1.536 3.754667-14.336 30.378667-29.525333 60.757333-44.032 91.136-2.218667 5.290667-6.144 5.290667-10.581333 3.925333-31.232-9.216-62.293333-17.066667-93.354667-25.941333a10.752 10.752 0 0 1-8.362667-8.362667c-6.826667-22.698667-13.653333-44.714667-20.48-68.266667-3.072-10.581333-6.144-22.016-9.898666-34.133333 63.658667 12.117333 125.952 24.405333 187.733333 36.522667zM347.538944 723.114667c2.218667-2.218667 3.754667-3.072 4.437333-4.608L629.992277 497.664a13.994667 13.994667 0 0 1 11.264-2.389333c21.333333 5.290667 42.496 11.434667 63.829334 17.066666a83.797333 83.797333 0 0 0 10.581333 3.072c-22.698667 17.066667-44.032 34.133333-65.194667 50.176-73.557333 57.002667-147.285333 113.152-220.842666 170.666667a21.504 21.504 0 0 1-8.362667 3.754667c-24.405333-4.608-47.786667-10.752-73.728-17.066667zM567.016277 349.866667a29.013333 29.013333 0 0 1 3.072 8.362666c9.045333 29.696 17.066667 60.074667 27.306667 89.6 3.072 8.362667 0 12.117333-6.144 17.066667L359.656277 648.704c-19.626667 15.872-39.424 31.061333-59.221333 47.104a27.818667 27.818667 0 0 1-3.072-6.826667c-11.434667-27.989333-22.869333-56.149333-34.133333-84.138666a10.410667 10.410667 0 0 1 3.754666-15.189334c81.237333-64.512 162.474667-129.706667 243.712-195.072 18.602667-14.506667 35.669333-29.696 56.32-44.714666zM452.328277 784.725333c19.626667-14.506667 219.306667-170.666667 330.069334-256a41.472 41.472 0 0 0 10.581333-12.970666c23.552-48.64 47.786667-97.109333 70.656-146.432a24.746667 24.746667 0 0 0-21.333333-37.888c-32.597333-6.144-66.048-12.970667-98.645334-18.944-40.96-7.68-81.92-15.189333-122.197333-23.552-11.434667-2.218667-22.016-3.754667-34.133333-6.826667a23.722667 23.722667 0 0 0-23.552 5.973333l-112.298667 89.6c-77.994667 63.146667-156.330667 125.781333-235.178667 189.098667a24.917333 24.917333 0 0 0-9.045333 34.133333c18.944 45.568 37.888 91.818667 56.149333 136.533334a36.010667 36.010667 0 0 0 28.672 25.941333c31.914667 6.826667 92.672 22.016 124.586667 28.842667a43.690667 43.690667 0 0 0 21.333333 2.218666 70.144 70.144 0 0 0 14.336-9.898666z m-32.597333-752.981333c66.048 12.8 130.56 25.770667 195.072 38.741333-17.066667 43.178667-32.597333 85.333333-49.322667 126.634667q-54.442667-15.530667-108.544-32.597333a10.24 10.24 0 0 1-6.826666-6.826667c-9.898667-40.96-19.797333-82.773333-30.378667-126.122667z m-47.786667 13.653333c2.389333 9.898667 3.925333 18.944 6.144 27.306667l22.698667 95.744a8.192 8.192 0 0 1-3.072 9.898667c-86.528 76.629333-172.202667 153.6-258.048 230.741333-11.434667 9.898667-22.698667 20.48-34.133333 31.061333-16.725333-39.082667-31.914667-76.8-47.104-114.688 0-2.389333 1.536-6.826667 3.072-9.216 12.8-12.117333 26.624-23.552 40.277333-35.669333l215.552-187.733333c18.261333-14.506667 35.669333-30.378667 54.613333-47.104z m-227.669333 426.666667c13.653333-12.117333 25.770667-23.552 38.741333-34.133333 44.032-39.424 88.746667-78.848 132.778667-119.466667 37.888-34.133333 76.629333-68.266667 114.517333-102.4a11.434667 11.434667 0 0 1 12.117334-2.218667c40.96 12.117333 81.92 24.917333 123.733333 36.352 22.698667 6.826667 32.597333 0 40.96-19.797333l63.829333-165.376A25.941333 25.941333 0 0 0 650.472277 25.6l-217.941333-44.032c-14.336-3.072-28.16-6.144-42.496-8.362667a23.552 23.552 0 0 0-20.48 6.826667L230.632277 100.693333c-59.221333 51.2-117.76 102.4-176.810666 153.6-14.336 12.117333-28.16 24.405333-42.496 37.205334a25.258667 25.258667 0 0 0-7.68 34.133333C25.661611 380.074667 47.677611 434.005333 68.498944 486.4a34.133333 34.133333 0 0 0 21.162667 20.48c30.378667 9.045333 60.757333 18.944 91.136 28.16a25.770667 25.770667 0 0 0 30.378666-6.826667 25.429333 25.429333 0 0 0-12.117333-40.96c-14.336-5.290667-29.525333-9.216-44.032-13.653333a23.552 23.552 0 0 1-11.434667-2.218667zM773.352277 100.693333c62.976 12.970667 125.269333 26.624 187.733334 39.424l-59.904 108.544c0 2.218667-5.461333 3.925333-8.362667 3.072-28.16-5.290667-57.002667-11.434667-85.333333-17.066666a11.264 11.264 0 0 1-9.898667-9.898667c-4.608-23.552-9.898667-47.786667-14.506667-71.338667-3.072-17.066667-6.144-34.133333-9.898666-53.077333z m138.922667 205.653334a25.429333 25.429333 0 0 0 23.552-15.872c22.698667-40.96 45.568-82.773333 68.266667-123.733334 5.290667-9.898667 10.581333-18.944 16.042666-28.842666a25.941333 25.941333 0 0 0-18.944-40.277334c-62.293333-12.8-124.416-26.453333-186.709333-39.424-23.552-5.290667-47.786667-11.434667-71.338667-14.336A25.258667 25.258667 0 0 0 717.032277 73.386667l31.402667 157.013333c2.218667 9.898667 3.754667 18.944 5.290667 28.842667A27.306667 27.306667 0 0 0 777.106944 281.6l102.4 20.48a237.738667 237.738667 0 0 1 31.914667 4.608z m0 0"  horiz-adv-x="1024" />

    
    <glyph glyph-name="diqiu" unicode="&#58882;" d="M499.055 464.261c0 2.59 0 2.59 0 0 0 2.59 0 0 0 0z m168.29-186.413z m5.178 0h-5.178s2.589-2.59 5.178 0zM506.822 831.91C263.449 831.91 64.09 635.14 64.09 389.178s196.77-442.732 442.732-442.732c243.373 0 442.732 196.77 442.732 442.732S752.784 831.91 506.822 831.91z m282.21-173.468c-15.535 0-25.892 0-38.837-7.767-5.178-2.59-7.767-7.767-15.534-10.356-5.179-2.59-12.946 0-18.124-2.59-20.713-7.767-18.123-49.192-44.014-44.014-12.946 2.59-20.713 18.124-28.48 28.48-5.178 7.767-15.535 15.535-7.767 25.89h-10.357c5.179 10.357 18.124 7.768 20.713 12.946 5.178 12.946-15.534 12.946-23.302 15.535 7.768 7.767 10.357-2.59 18.124 0 7.767 2.589-2.59 10.356-7.767 12.945-2.59 0-25.891-7.767-12.946 5.178-18.123 10.356-36.247 23.302-54.37 33.658-2.59-12.945 23.301-20.712 33.658-23.302-2.59-5.178-10.357-12.945-15.535-10.356-5.178 2.59-2.589 12.946-12.945 10.356-5.178-15.534 12.945-10.356 15.534-20.712 2.59-10.356-7.767-5.178-10.356-5.178 0 0-7.767 7.767-7.767 2.589 0-5.178 10.356-5.178 12.945-10.357-12.945 0-20.713 5.179-31.069 10.357-12.945 7.767-18.123 7.767-33.658 7.767 5.178 2.59 10.356 2.59 15.535 5.178 2.589 2.59 10.356 10.356 10.356 12.946 2.589 7.767 0 7.767-7.767 12.945-2.59 2.589-10.357 12.945-20.713 12.945-28.48 5.178-10.356-25.89-31.069-31.069-5.178 0-15.534 2.59-18.123-2.589-2.59-2.589-2.59-10.356-5.179-12.945-5.178-5.178-12.945-5.178-18.123-10.356-5.178-2.59-18.124-12.946-20.713-18.124-12.945-23.302 25.891-31.069 41.426-36.247 7.767-2.589 25.89-7.767 28.48-12.945 5.178-7.768-5.179-12.946 5.178-18.124 2.589-2.589 10.356-2.589 12.945 2.59 5.178 5.177-2.59 5.177-2.59 12.945-2.588 10.356 2.59 7.767 7.768 10.356 10.356 7.767 7.767 10.356 5.178 23.302-2.589 5.178-10.356 23.301-2.589 28.48 7.767 5.178 25.89-2.59 33.658-5.179 7.767 0 12.946-10.356 15.535-15.534 2.589-2.59 7.767-7.767 12.945-7.767 7.767 0 5.178 7.767 7.767 10.356 12.946 7.767 15.535-2.59 20.713-12.945 5.178-10.357 7.767-12.946 15.534-20.713 2.59-2.59 20.713-12.945 18.124-20.713 0-5.178-18.124-10.356-23.302-12.945-18.123-5.178-51.781 10.356-54.37-18.124 7.767 2.59 25.89 18.124 31.068 10.357 2.59-2.59-2.589-7.768 0-12.946 2.59-10.356 10.357-7.767 20.713-5.178h-2.589c10.356 5.178 10.356 5.178 15.534 12.946 2.59 2.589 5.179 10.356 7.768 12.945 7.767 7.767 10.356 2.589 15.534-2.59 2.59-2.588 12.946-20.712 10.356-18.123-15.534 2.59-28.48 2.59-41.425-5.178-7.767-5.178-12.945-10.356-20.712-12.945-2.59 0-18.124-2.59-15.535 0 2.59 2.589 10.356 5.178 15.535 10.356-10.357 5.178-18.124-5.178-25.891-10.356-7.767-2.59-10.356-10.357-15.535-18.124-2.589-2.589-7.767-2.589-10.356-7.767-2.589-2.59-2.589-7.767-5.178-12.945-2.59-2.59-7.767 0-7.767-5.179-2.59-5.178 2.589-7.767 0-12.945s-12.946-10.356-18.124-15.534l2.59 2.589c-5.179-5.178-10.357-7.768-12.946-12.946 2.589-7.767 7.767-25.89 5.178-28.48-12.945-10.356-20.713 10.357-25.89 15.535-12.946 18.123-36.248 5.178-54.371 5.178-20.713-2.589-41.426-28.48-28.48-51.781 5.178-10.357 18.123-15.535 28.48-12.946 10.356 2.59 12.945 18.124 23.301 18.124 18.124 0 0-18.124 0-25.891-2.589-5.178 2.59-7.767 7.768-7.767s12.945 2.589 15.534 0c2.59-2.59 2.59-10.357 5.178-7.768-7.767-5.178-5.178-20.712 2.59-25.89 7.766-5.178 18.123 0 25.89-2.59 15.534-5.178 7.767 0 23.302 10.357 10.356 5.178 10.356 0 18.123 0 5.178 0 7.767 5.178 15.535 5.178 5.178-2.589 7.767-5.178 15.534-7.767h7.767c12.946-2.59 23.302-10.356 33.658-18.124 7.768-5.178 15.535-5.178 25.891-7.767 7.767-2.589 20.713-12.945 20.713-23.302 0-2.589-7.767-10.356-7.767-12.945 2.589-2.59 15.534 2.59 18.123 2.59 0-2.59-10.356-7.768-10.356-5.18 0-2.588 5.178-5.177 7.767-5.177 5.178 15.534 12.945 5.178 20.713 2.589 7.767-2.59 18.123-2.59 25.89-5.178 7.768-2.59 23.302-7.768 28.48-12.946 5.178-7.767 2.59-18.123-2.589-25.89-5.178-10.357-15.534-12.946-20.712-23.302-2.59-7.767 0-18.124-2.59-25.89-2.589-12.946-5.178-7.768-12.945-15.535s0-5.179-10.356-10.357-18.124-2.589-25.891-12.945v2.589c-2.59-5.178-5.178-12.945-5.178-15.534-2.59-7.768-7.767-10.357-12.946-15.535-2.589-2.589-20.712-28.48-20.712-25.89-2.59 2.588-15.535-2.59-15.535 0 0-2.59 0-2.59 2.59-5.179-2.59-20.712-12.946-23.301-33.659-23.301 2.59-10.357-7.767-7.768-12.945-12.946-2.589-2.589-2.589-12.945-5.178-15.534 0-2.59-10.356-12.946-10.356-15.535 0-2.589 2.589-5.178 5.178-7.767-15.535-2.59-28.48-5.178-44.015-5.178 2.59 2.589 2.59 7.767-5.178 7.767 2.59 7.767 7.768 10.356 10.357 15.535v7.767c2.589 10.356 2.589 5.178 0 12.945-5.179 18.124 2.589 23.302 7.767 41.425 5.178 18.124 5.178 38.836 7.767 59.55 2.59 7.766 5.178 28.479 0 36.246-2.589 10.356-18.123 18.124-25.89 23.302-10.357 10.356-15.535 18.123-23.302 31.069-2.59 5.178-7.768 10.356-10.357 18.123-5.178 12.946 0 5.178 0 12.946s0 15.534 2.59 23.301c2.588 7.768 10.356 15.535 15.534 23.302 2.589 7.767 0 18.124-7.767 20.713-5.179 2.589-10.357-2.59-12.946 0-5.178 0-12.945 5.178-18.123 10.356-7.768 5.178-10.357 12.945-18.124 18.124-5.178 5.178-10.356 2.589-18.123 2.589-7.768 2.589-10.357 10.356-15.535 12.945-7.767 5.178-12.945-2.59-20.712 0-7.768 0-18.124 10.356-25.891 12.945-15.535 5.179-23.302 12.946-28.48 28.48-5.178 12.946-12.945 18.124-20.713 28.48-7.767 10.356-10.356 18.124-23.301 23.302-2.59 0 2.589-10.357 2.589-12.946 5.178-7.767 12.945-15.534 18.123-25.89 7.767-12.946 5.178-12.946-2.589-2.59-10.356 12.946-20.712 25.891-28.48 38.837 5.178-5.178 5.178 0 0 5.178s-12.945 7.767-15.534 12.945c-18.124 15.535-20.713 38.836-20.713 62.138 0 7.767 2.59 12.945 2.59 20.713 0 5.178-5.179 10.356-10.357 15.534-2.589 2.59-5.178 7.767-5.178 7.767-5.178 7.768-7.767 12.946-12.945 18.124-2.59 2.589-12.946 10.356-23.302 18.123 41.425 51.782 95.796 93.207 157.933 119.098 0-2.59 2.59-5.178 2.59-10.356 7.767-7.768 12.945-7.768 20.712-10.357 0-10.356-15.534-12.945-23.302-10.356-10.356 2.59-23.301 5.178-31.068-5.178 5.178-2.59 20.712-15.535 18.123-2.59h31.069c5.178 0 18.124-5.177 20.713-2.588 2.589 0 2.589 7.767 5.178 10.356-2.59 0-5.178 2.59-7.767 0 7.767 7.767 12.945 2.59 23.301-2.589-10.356-5.178-2.589-20.713 5.178-7.767 7.768 10.356-2.589 15.534-10.356 20.712 10.356 12.946 15.535 12.946 25.89 0 2.59 7.768 7.768 5.178 15.535 5.178v2.59c-2.589 0-7.767 2.589-10.356 2.589 7.767 12.945 2.59 15.534 12.945 18.123 7.768 2.59 31.07 0 36.247 7.767-15.534-2.589-36.247-5.178-51.781-10.356-7.767-2.589-12.945-12.945-20.713-7.767-7.767 7.767 5.178 18.123 10.357 20.712h-2.59c25.891 5.179 54.371 7.768 82.851 7.768 18.124 0 36.247-2.59 54.37-2.59-5.178-2.588-2.588-5.178-5.178-7.767-7.767-5.178-23.301-10.356-33.658-15.534 12.946 0 44.015-12.945 49.193 5.178-5.178 0-7.767 0-12.945 2.59 7.767 5.177 15.534 10.355 25.89 12.945 75.084-18.124 147.578-59.55 199.36-116.509 2.588 0 0 0 0 0z m72.493-155.344c0 2.589 2.59 2.589 2.59 2.589 2.588 2.589 0 5.178 2.588 7.767 2.59 2.589 5.179 2.589 7.768 5.178l2.589 2.59c7.767-18.124 12.945-36.248 15.534-56.96l-7.767-2.59c-5.178 0-7.767 2.59-10.356 5.178l-10.357 10.357c-2.589 5.178 0 7.767 0 12.945-2.589 5.178-5.178 10.356-2.589 12.946z m5.178-201.948c-7.767 7.767-15.534 15.534-20.712 23.301-5.178 10.357-2.59 18.124-2.59 28.48 0 7.767-5.177 20.713 0 28.48l7.768 7.767c2.59 5.178 2.59 10.356 7.767 15.535 5.178 5.178 10.357 7.767 15.535 12.945 5.178 5.178 5.178 7.767 7.767 15.534 2.589 5.179 7.767 12.946 12.945 15.535 2.59-20.713 5.178-38.836 5.178-59.549 0-33.658-5.178-69.905-12.945-100.974-7.767 2.59-15.534 7.767-20.713 12.946z m0 0"  horiz-adv-x="1024" />

    
    <glyph glyph-name="linked" unicode="&#58883;" d="M114.93622329 668.42414307a111.92888889 111.92888889 0 1 1 0.40242631 223.85741597 111.92888889 111.92888889 0 1 1-0.40242631-223.85741597ZM1.62360889-86.86705777999998l1.20945778 671.56878223 223.85777778-0.40277334-1.20945778-671.56878222zM758.3744 583.28064c-109.94119111 0.20252445-167.05877333-43.76576-196.02887111-82.38876445l0.15246222 82.75057778-223.85777778 0.41301334-1.23904-671.56764445 223.85777778-0.41301333 0.83968 455.37962666c16.12458667 29.9008 50.77902222 62.19434667 126.03392 62.05553778 0 0 83.94752-0.15473778 83.79278222-84.10225778l-0.80327111-435.44689777 251.83800889-0.46421333 2.65443556 505.3997511c0.00113778 0-71.36824889 168.02360889-267.24010667 168.38428445z"  horiz-adv-x="1024" />

    
    <glyph glyph-name="clock-circle" unicode="&#58906;" d="M512 832C264.6 832 64 631.4 64 384s200.6-448 448-448 448 200.6 448 448S759.4 832 512 832z m0-820c-205.4 0-372 166.6-372 372s166.6 372 372 372 372-166.6 372-372-166.6-372-372-372zM686.7 257.4L544.1 360.5V608c0 4.4-3.6 8-8 8H488c-4.4 0-8-3.6-8-8v-275.4c0-2.6 1.2-5 3.3-6.5l165.4-120.6c3.6-2.6 8.6-1.8 11.2 1.7l28.6 39c2.6 3.7 1.8 8.7-1.8 11.2z"  horiz-adv-x="1024" />

    
    <glyph glyph-name="shuichulixitong" unicode="&#58947;" d="M915.14601 296.617322a743.455779 743.455779 0 0 1-78.335752 180.769561 36.454285 36.454285 0 0 0 12.390361 48.776379 33.058029 33.058029 0 0 0 26.009518 3.635188 34.269758 34.269758 0 0 0 20.787134-16.571681C959.143737 400.382327 989.86364 314.707931 989.86364 251.0836 989.86364 42.051728 826.536157-128 625.866926-128A354.063945 354.063945 0 0 0 387.412215-35.157627a276.035393 276.035393 0 0 0-66.184324-7.987175C162.986259-43.144802 34.133333 91.032906 34.133333 255.998784c0 153.599514 226.644616 455.542024 252.585867 489.436317a33.348161 33.348161 0 0 0 52.991832 0.819197c1.587195-1.979727 36.98335-45.806788 82.056274-108.782589Q499.881192 763.918242 589.02011 882.514133A33.399361 33.399361 0 0 0 642.046075 883.299198q61.439805-76.799757 118.186292-157.456569a36.693217 36.693217 0 0 0-7.321576-49.936908 33.262828 33.262828 0 0 0-25.49752-6.536513 33.979626 33.979626 0 0 0-22.425529 14.148222q-42.939597 60.774208-88.42212 119.568688a2735.948669 2735.948669 0 0 1-222.872894-357.170069c228.38541 47.547583 215.670784-167.42347 521.504482-149.33286zM383.998892 573.98391a34.645224 34.645224 0 0 0-8.533306 8.635706q-29.798306 42.188666-61.16674 83.148537c-76.594957-106.086064-211.625997-313.001675-211.625996-409.735236a223.572625 223.572625 0 0 1 218.657441-227.805145c3.413323 0 6.826645 0 10.154634 0.238933a387.855838 387.855838 0 0 0-69.563513 222.719294c0 84.684532 56.319822 207.768942 122.162813 322.832045z"  horiz-adv-x="1024" />

    
    <glyph glyph-name="yingyong" unicode="&#59196;" d="M938.2 657.3L535.6 889.7c-14.6 8.4-32.6 8.4-47.2 0L85.8 657.3c-14.6-8.4-23.6-24-23.6-40.8v-464.8c0-16.8 9-32.4 23.6-40.8l402.6-232.4c14.6-8.4 32.6-8.4 47.2 0l402.6 232.4c14.6 8.4 23.6 24 23.6 40.8V616.4c-0.1 16.9-9.1 32.5-23.6 40.9zM803.8 557.1L548.6 365.7v-274c0-20.2-16.4-36.6-36.6-36.6s-36.6 16.4-36.6 36.6V364.4L221.9 533.5c-16.8 11.2-21.4 33.9-10.1 50.7 11.2 16.8 33.9 21.4 50.7 10.1l248.3-165.6L760 615.6c16.1 12.1 39 8.8 51.2-7.4s8.8-39-7.4-51.1z"  horiz-adv-x="1024" />

    
    <glyph glyph-name="zixun" unicode="&#60160;" d="M625.777778 197.404444a4.266667 4.266667 0 0 1-6.542222 4.266667 176.355556 176.355556 0 0 0-199.111112-15.928889 4.266667 4.266667 0 0 1-5.973333-5.12 107.804444 107.804444 0 0 1 104.96-66.56A102.684444 102.684444 0 0 1 625.777778 197.404444zM901.688889 524.5155560000001a398.222222 398.222222 0 0 1-779.093333 0A70.826667 70.826667 0 0 1 56.888889 453.973333v-147.626666a71.111111 71.111111 0 0 1 71.111111-71.111111h2.844444a70.826667 70.826667 0 0 1 62.577778 37.831111 338.773333 338.773333 0 0 1 182.044445-197.12 8.248889 8.248889 0 0 1 9.102222 13.653333 298.951111 298.951111 0 0 0-78.222222 118.044444c-37.831111 104.675556-10.24 138.808889 20.764444 160.426667s224.711111 22.755556 263.395556 56.888889a148.764444 148.764444 0 0 1 40.675555 91.022222 19.911111 19.911111 0 0 0 36.408889 7.111111 531.626667 531.626667 0 0 0 68.266667-217.884444 234.382222 234.382222 0 0 0-70.542222-207.36 6.257778 6.257778 0 0 1 7.111111-9.955556 339.057778 339.057778 0 0 1 158.435555 185.173334 70.826667 70.826667 0 0 1 28.444445-28.444445 378.595556 378.595556 0 0 0-277.048889-256 72.533333 72.533333 0 1 1 6.826666-56.888889 435.484444 435.484444 0 0 1 327.111112 306.915556A70.826667 70.826667 0 0 1 967.111111 306.062222v147.911111a70.826667 70.826667 0 0 1-65.422222 70.542223zM512 723.057778a337.92 337.92 0 0 1-320.853333-232.106667 70.826667 70.826667 0 0 1-13.937778 16.497778 341.333333 341.333333 0 0 0 669.866667 0 70.826667 70.826667 0 0 1-13.937778-16.497778A337.92 337.92 0 0 1 512 723.057778z"  horiz-adv-x="1024" />

    
    <glyph glyph-name="whatsapp" unicode="&#58946;" d="M520.932593 844.028549C257.827121 844.028549 45.068993 630.458366 45.068993 367.352895c0-90.137986 25.173672-174.591594 68.21253-246.05234l-81.205393-241.99207 240.367962 82.017447c72.272799-44.662966 157.538462-69.836638 248.488501-69.836638 263.105472 0 476.675654 213.570182 476.675654 476.675654S784.038065 844.028549 520.932593 844.028549zM774.293418 151.34655c-17.865186-19.489294-52.783505-76.333069-145.357653-53.595559S429.1705 206.566217 429.1705 206.566217s-48.723236 41.41475-95.01031 102.318795c-40.602696 53.595559-69.836638 115.311657-83.641554 181.088025-8.932593 42.226804-8.932593 73.896907 32.482157 113.68755l7.308485 7.308485c8.932593 9.744647 36.542427 34.106265 60.091991 5.684378C374.762887 591.479778 449.471848 514.334655 449.471848 514.334655s15.429025-11.368755-14.616971-43.038858c-30.858049-29.233941-50.347343-50.347343-50.347343-50.347343s-2.436162-3.248216-0.812054-8.932594c1.624108-3.248216 39.790642-66.588422 55.219667-80.393338 13.804917-13.804917 54.407613-58.467883 122.620142-102.318795 2.436162-1.624108 4.06027-2.436162 6.496432-3.248216 4.06027-0.812054 7.308485 0 10.556701 3.248216 4.06027 4.06027 34.106265 39.790642 52.783505 57.655829 6.496431 6.496431 14.616971 10.556701 23.549564 12.180809 5.684377 0.812054 10.556701 0.812054 14.616971-4.06027 6.496431-4.872324 96.634417-95.010309 110.439333-108.815226 1.624108-1.624108 3.248216-4.06027 4.06027-6.496431 0.812054-4.872324 0.812054-14.616971-9.744647-28.421888z"  horiz-adv-x="1024" />

    
    <glyph glyph-name="kongqijinghuaqi" unicode="&#58975;" d="M638.4 14.9c-6.8 0-13.1 3.5-16.8 9.4-4.1 6.7-99.8 164.9-16.2 316.2 81.1 146.6 306.4 260.4 315.9 265.2 5.3 2.6 11.5 2.7 16.9 0.3 5.4-2.4 9.4-7.1 11-12.9 2.5-9.4 61.4-232.9-20.7-381C846.1 63.2 651 17.3 642.6 15.4c-1.2-0.4-2.7-0.5-4.2-0.5z m278.4 543.5C858.4 526 700.9 431.4 640 321.3c-60.1-108.7-11-225.7 8.2-263.7C693.1 70.8 832.4 119.5 894 231c59.6 107.6 35.2 267 22.8 327.4z m0 0M676-11.1s-65.7 187.7 13.4 330.6c79.1 142.9 273 186.9 273 186.9s65.7-187.7-13.4-330.5c-79.1-142.9-273-187-273-187z m0 0M639.3 14.9c-5 0-10 1.8-14 5.5-8.3 7.7-8.9 20.7-1.1 29.2 199.7 215.9 278.4 505 279.1 507.9 3 11 14.4 17.2 25.1 14.6 11-3 17.5-14.3 14.6-25.1-3.3-12.3-81.9-301.7-288.7-525.2-4-4.7-9.5-6.9-15-6.9z m0 0M470.8-8.4h-0.7c-318.6 11.5-404 246-404.9 248.3-75.7 239 14.7 514.1 18.6 525.7 2.6 7.9 10.1 13.3 18.5 13.4h0.1c8.3 0 15.8-5.3 18.6-13.2 28.5-81 131.5-151.3 222.4-213.4 55.1-37.6 107.2-73.2 138.8-108.4 166.5-185.7 6.9-440.8 5.2-443.3-3.6-5.6-9.9-9.1-16.6-9.1zM107.6 705.3c-22.1-88.4-58.7-283.6-5.2-452.9 2.9-7.9 76.1-205.4 357.3-220.8 25.3 45.5 122.4 242-7 386.2-28.4 31.7-78.6 65.9-131.7 102.1-78.8 53.9-166.6 113.8-213.4 185.4z m0 0M470.8-8.3c-10.6 0-19.2 8.3-19.6 19-0.1 1.4-7.6 145-174.8 293.2C98.7 461.3 89 698.1 88.7 708.1c-0.3 10.9 8.1 20 19 20.3 10.9 2 20-8.1 20.3-19 0.1-2.3 9.6-230.1 174.4-376.2C483.3 173 490.2 18.4 490.5 11.8c0.3-10.8-8.1-19.9-19-20.3-0.3 0.2-0.5 0.2-0.7 0.2z m0 0"  horiz-adv-x="1024" />

    
    <glyph glyph-name="duoyuyan" unicode="&#59068;" d="M0 599.04l71.68 71.68L512 240.64l440.32 440.32 71.68-81.92-512-512-512 512z"  horiz-adv-x="1024" />

    
    <glyph glyph-name="mubiao" unicode="&#58895;" d="M439.603272 480.543135c-60.805059-21.503978-107.294613-86.077354-96.563103-161.382238 7.167993-53.800906 46.489554-100.41334 96.563103-118.353802 82.247598-25.087975 157.347683 17.940462 185.958214 89.661351 3.583996 10.751989 14.295026 21.503978 28.610532 21.503978 28.610531 3.604476 50.07355-21.503978 39.321561-50.17595-32.153568-89.66135-125.132675-150.630249-225.279775-143.462256-135.905144 10.751989-232.447768 139.87826-193.126207 276.131564 17.899502 68.136892 71.536568 125.521794 139.46866 150.630249 17.899502 7.167993 35.778524 0 42.926038-17.940462 10.731509-14.335986 0-35.839964-17.879023-46.612434M894.975617 400.937455c-14.499826-3.624956-21.729258-18.124782-21.729258-32.604127v-25.374695c0-228.228892-188.415812-412.999267-420.29014-402.124398-206.520113 7.249913-380.4361 181.145419-387.686012 387.645053-7.249913 228.228892 177.540942 416.624223 405.790314 416.624223 18.124782 0 32.624607 0 47.103953-3.624956 14.499826-3.624956 28.999651 7.249913 36.249564 21.729258 7.229433 21.749738-3.645436 43.478997-25.374695 47.103953-47.103953 7.249913-94.207906 3.624956-144.936815-7.249913C163.103069 759.603336-3.583484 563.958092 0.061952 339.354157 3.686908 82.125614 213.811498-127.998976 471.040041-127.998976A470.05649 470.05649 0 0 1 942.07957 342.958633V375.60372c-3.624956 21.708778-25.354215 36.208604-47.103953 25.354215zM665.395047 896c-14.458866 0-28.917731-7.454713-32.522208-22.323178l-158.945121-498.994701C463.052849 348.631587 484.761627 322.560573 506.429446 322.560573c3.624956 0 7.229433 0 14.458865 3.727357L1001.348631 445.440451c32.501727 14.888945 28.897251 59.59674-3.624957 70.758329L773.754618 568.320328c-14.438386 3.727356-21.667818 14.888945-25.292774 26.071014L701.50125 866.20163C694.292298 884.838411 679.833432 896 665.395047 896m-7.208953-186.163014l25.272295-130.355069v-7.434233c10.854389-40.959959 39.73116-70.758329 75.878324-81.919918l68.628411-14.888945-263.700216-63.303617 93.921186 297.881302"  horiz-adv-x="1024" />

    


  </font>
</defs>
</svg>
